<?xml version="1.0" encoding="utf-8"?>
<!-- Generator: Adobe Illustrator 19.2.1, SVG Export Plug-In . SVG Version: 6.00 Build 0)  -->
<svg version="1.1" id="Icons" xmlns="http://www.w3.org/2000/svg" xmlns:xlink="http://www.w3.org/1999/xlink" x="0px" y="0px"
	 viewBox="0 0 256 256" style="enable-background:new 0 0 256 256;" xml:space="preserve">
<style type="text/css">
	.st0{display:none;}
	.st1{display:inline;fill:#539D4B;}
	.st2{display:inline;fill:#87CB7B;}
	.st3{display:inline;fill:#B97B3C;}
	.st4{display:inline;}
	.st5{fill:#B87B3C;}
	.st6{fill:#68442C;}
	.st7{display:inline;fill:#C28448;}
	.st8{display:inline;fill:#F9E6D4;}
	.st9{display:inline;fill:#2798AE;}
	.st10{display:inline;fill:#F04141;}
	.st11{display:inline;fill:#FBAA41;}
	.st12{display:inline;fill:#7AB83C;}
	.st13{fill:#60A541;}
	.st14{display:inline;fill:#2879DB;}
	.st15{display:inline;fill:#26BADD;}
	.st16{display:inline;fill:#ED7E84;}
	.st17{display:inline;fill:#F25052;}
	.st18{fill:#8B5A1C;}
	.st19{fill:#E2AE7F;}
	.st20{fill:#B69062;}
	.st21{fill:#DC964F;}
	.st22{fill:#D17C3F;}
	.st23{display:inline;fill:#6E6294;}
	.st24{display:inline;fill:#DF7552;}
	.st25{display:inline;fill:#A4997A;}
	.st26{display:inline;fill:#443A5D;}
	.st27{display:inline;fill:#B7AC8A;}
	.st28{display:inline;fill:#DACDA8;}
	.st29{display:inline;fill:#554B76;}
	.st30{display:inline;fill:#8579A9;}
	.st31{display:inline;fill:#DA4257;}
	.st32{display:inline;fill:#CABC96;}
	.st33{display:inline;fill:#E9DCB4;}
	.st34{display:inline;fill:#F4EBD0;}
	.st35{display:inline;fill:#ECDFB7;}
	.st36{display:inline;fill:#A299C0;}
	.st37{display:inline;fill:#FAF7EA;}
	.st38{display:inline;fill:#F0CB6E;}
	.st39{display:inline;fill:#FCBC00;}
	.st40{display:inline;fill:#FEFEFD;}
	.st41{display:inline;fill:#020200;}
	.st42{display:inline;fill:#DD6161;}
	.st43{display:inline;fill:#FEA1A0;}
	.st44{display:inline;fill:#FE8887;}
	.st45{display:inline;fill:#FE9494;}
	.st46{display:inline;fill:#FECBC8;}
	.st47{display:inline;fill:#3E649E;}
	.st48{display:inline;fill:#4B87C3;}
	.st49{display:inline;fill:#D0DFEC;}
	.st50{display:inline;fill:#668FBB;}
	.st51{display:inline;fill:#76A1CD;}
	.st52{display:inline;fill:#FDFEFE;}
	.st53{fill:#B3B3B3;}
	.st54{fill:#F6C949;}
	.st55{display:inline;fill:#598BB8;}
	.st56{display:inline;fill:#426C8C;}
	.st57{display:inline;fill:#F3F9FC;}
	.st58{display:inline;fill:#1C1C1C;}
	.st59{display:inline;fill:#B3B3B3;}
	.st60{display:inline;fill:#F9F206;}
	.st61{display:inline;fill:#F14335;}
	.st62{display:inline;fill:#4BAC50;}
	.st63{display:inline;fill:#2193F0;}
	.st64{display:inline;fill:#3E50B2;}
	.st65{display:inline;fill:#9926AD;}
	.st66{display:inline;fill:#C28C04;}
	.st67{display:inline;fill:#89901E;}
	.st68{display:inline;fill:#4F318D;}
	.st69{display:inline;fill:#2D4692;}
	.st70{display:inline;fill:#5A210D;}
	.st71{fill:none;}
	.st72{fill:#FCA803;}
	.st73{display:none;fill:#007F00;}
	.st74{display:inline;fill:#939393;}
	.st75{display:inline;fill:#6B95D9;}
	.st76{display:inline;fill:#D1D1D1;}
	.st77{display:inline;fill:#B0C6EB;}
	.st78{display:inline;fill:#9DB9E6;}
	.st79{display:inline;fill:#F14343;}
	.st80{display:inline;fill:#FCA6A6;}
	.st81{display:inline;fill:#E7B237;}
	.st82{display:inline;fill:#FBEBB4;}
	.st83{display:inline;fill:#F3D87A;}
	.st84{display:inline;fill:#E8C63C;}
	.st85{display:inline;fill:#E2B832;}
	.st86{display:inline;fill:#F7E694;}
	.st87{display:inline;fill:#F5DF8E;}
	.st88{display:inline;fill:#F0CB3F;}
</style>
<g id="Agree" class="st0">
	<path class="st1" d="M248.5,72.6c0,1.6-1.2,2.2-2,2.9c-6.5,6.4-13.2,12.7-19.6,19.2c-42.1,42.2-84.2,84.4-126.1,126.8
		c-3.2,3.3-4.7,2.8-7.7-0.2c-26.8-27.1-53.7-54-80.7-80.8c-2.7-2.6-3.1-4.1-0.1-6.9c11.3-10.9,22.3-22,33.2-33.2
		c2.7-2.7,4.1-3,7-0.1c13.4,13.7,27.1,27,40.4,40.7c3.1,3.1,4.7,3.5,8.1,0.1c34.6-34.9,69.5-69.5,104.1-104.4c3.4-3.4,5-3,8.1,0.2
		c10.8,11.1,21.8,22,32.8,32.9C246.8,70.8,247.7,71.7,248.5,72.6z M96.5,199.9c2.3-0.3,3.2-2.1,4.5-3.3c39-39,78-78,117-117
		c1.1-1.1,2-2.2,3.2-3.2c2.9-2.2,3.2-4.2,0.2-6.7c-2.8-2.3-5.2-5.1-7.8-7.7c-4.6-4.6-4.6-4.6-9.1-0.1
		c-34.5,34.5-69.1,69-103.5,103.7c-3.4,3.4-5.1,3-8.1-0.1c-11.4-11.7-23-23.2-34.6-34.7c-3-3-5.5-8.2-9.5-8.1
		c-3.6,0.1-6.1,5.2-9.1,8.1c-6.4,6.3-6.4,6.3-0.1,12.5c17.9,17.9,35.8,35.8,53.8,53.7C94.4,198,95.5,198.9,96.5,199.9z"/>
	<path class="st2" d="M96.5,199.9c-1-0.9-2.1-1.9-3.2-2.9c-17.9-17.9-35.8-35.8-53.8-53.7c-6.2-6.2-6.3-6.3,0.1-12.5
		c3-2.9,5.4-7.9,9.1-8.1c4-0.1,6.5,5.1,9.5,8.1c11.6,11.5,23.2,23,34.6,34.7c3.1,3.2,4.8,3.5,8.1,0.1c34.4-34.7,69-69.1,103.5-103.7
		c4.5-4.5,4.5-4.5,9.1,0.1c2.6,2.6,5,5.4,7.8,7.7c3,2.5,2.7,4.5-0.2,6.7c-1.2,0.9-2.1,2.1-3.2,3.2c-39,39-78,78-117,117
		C99.7,197.8,98.8,199.5,96.5,199.9z"/>
</g>
<g id="Creative" class="st0">
	<path class="st3" d="M155.9,254.8c-8.7-5.6-14.5-13.9-20.3-22.1c-24.1-34.2-43.5-71.1-63.2-107.9c-0.6-1.2-1.3-2.2,0.5-3.1
		c7.7-4,15.4-8,23.4-12.2c0.6,1.1,1.2,1.9,1.7,2.9c12.2,24.9,24.8,49.7,36.6,74.8c8,17,15.4,34.3,20.1,52.5
		c1.2,4.8,1.4,9.8,2.1,14.7C156.5,254.5,156.2,254.6,155.9,254.8z"/>
	<g class="st4">
		<path class="st5" d="M150.6,212.2c-2.2-5.3-4.4-10.4-6.4-15.6c-0.2-0.6,0.1-1.7,0.6-2.4c8.7-12.8,1.6-28.3-13.9-30.1
			c-0.8-0.1-1.9-0.5-2.2-1.1c-3.1-5.8-6.1-11.6-9.1-17.3c2.5-2.2,4.6-3.8,6.4-5.6c3.7-3.6,6.6-7.8,7.7-12.9
			c1.7-7.4-1.5-13.5-8.5-16.4c-6.6-2.7-13.2-1.9-19.8,0c-0.7,0.2-1.4,0.4-2.2,0.7c-0.3-0.3-0.6-0.5-0.7-0.8
			c-3.8-8.6-10-15.5-15.4-22.9c-0.5-0.7-1.1-1.4-1.2-2.1c-0.6-8.4-0.9-16.8,2-25c3.3-9.3,10-15.7,18.3-20.4
			c20.7-11.7,42.7-13.4,65.2-7.4c32.1,8.5,55.5,28.1,70,57.8c9.7,20,7.9,40.4-1.5,60.2c-7.6,15.9-19.4,28.3-33.5,38.5
			c-16.1,11.7-34,19.3-53.7,22.6C152.1,212,151.5,212.1,150.6,212.2z M181.8,139.7c-9.2,4.8-12.9,16.2-8.1,25.4
			c4.8,9.4,16.3,13,25.6,8.1c9.2-4.8,12.8-16.2,8.1-25.4C202.7,138.5,191.2,134.8,181.8,139.7z M142.5,85.3c9.3-4.7,13-16,8.3-25.3
			c-4.7-9.3-16.3-13.1-25.6-8.4c-9.3,4.7-13,16.4-8.2,25.6C121.8,86.5,133.2,90,142.5,85.3z M206.3,84.2c-4.8-9.3-16.4-13-25.7-8.1
			c-9.2,4.9-12.8,16.2-8,25.4c4.8,9.3,16.1,12.9,25.4,8.3C207.3,105.2,211.1,93.5,206.3,84.2z"/>
		<path class="st6" d="M187.7,194.5c-10.6,5.5-21.9,9.4-33.6,11.6c-1.4-3.3-2.7-6.5-4-9.7c4.6-7.4,5.3-16,1.9-23.4
			c-3.4-7.5-10.5-12.7-19.2-14.1c-2.1-3.9-4.2-7.9-6.2-11.8c1.1-1,2.2-1.9,3.3-3c4.9-4.8,8-9.9,9.3-15.7
			c2.3-10.1-2.2-18.8-11.8-22.7c-8-3.3-15.8-2.2-21.5-0.7c-2.9-5.5-6.6-10.3-10.2-15c-1.4-1.8-2.8-3.7-4.1-5.5
			c-0.1-0.1-0.1-0.2-0.2-0.3c-0.5-7.5-0.7-14.8,1.8-21.7c2.6-7.2,7.8-12.9,15.8-17.4c0.8-0.5,1.6-0.9,2.4-1.3
			c17.8-9.3,37.5-11.2,58.7-5.6c30.2,8,52.6,26.4,66.4,54.8c8.3,17.1,7.8,35.8-1.5,55.4c-6.5,13.7-16.9,25.6-31.7,36.4
			C198.2,188.5,193,191.7,187.7,194.5z M179.2,134.8c-11.9,6.2-16.6,21-10.4,32.9c3,5.8,8.1,10.1,14.4,12.1c6.3,2,12.9,1.4,18.8-1.7
			c11.9-6.2,16.6-21,10.5-32.9c-3-5.8-8-10.1-14.3-12.1C191.8,131.2,185.1,131.7,179.2,134.8L179.2,134.8z M178,71.2
			c-11.8,6.2-16.5,21-10.3,32.9c6.1,11.9,20.9,16.7,32.8,10.7c0.1-0.1,0.2-0.1,0.3-0.2c11.9-6.2,16.5-21,10.4-33
			c-3-5.8-8.1-10.1-14.4-12.1C190.6,67.6,183.9,68.1,178,71.2L178,71.2L178,71.2z M122.5,46.8c-11.9,6.2-16.6,21.1-10.4,33
			c6.2,11.9,20.9,16.5,32.9,10.4l0.2-0.1c11.9-6.2,16.6-20.6,10.6-32.6c-2.9-5.8-8-10.2-14.2-12.3c-6.3-2.1-13-1.6-18.8,1.4
			L122.5,46.8z"/>
		<path class="st5" d="M63.4,117.4c16.8,32.9,34.5,65,53.7,96.3c-0.3,0.2-0.5,0.4-0.8,0.4c-25.9-1.4-50.5-7.1-72.6-21.2
			c-10.2-6.5-18.6-14.8-24-25.8c-7.1-14.5-3.4-27.8,10.4-36.3C40.4,124.3,51.7,120.2,63.4,117.4z M76,152.2
			c-4.9-9.3-16.2-12.9-25.4-8.1c-9.4,4.9-13,16.4-8,25.9c4.8,9,16.5,12.6,25.6,7.7C77.4,172.8,80.9,161.4,76,152.2z"/>
		<path class="st6" d="M107,207.8c-23.6-2.4-43.4-8.8-60.3-19.6c-10.2-6.6-17.5-14.3-22.1-23.6c-5.9-12-3.1-22.1,8.3-29.2
			c1.7-1.1,3.6-2.1,5.4-3.1c6.5-3.4,13.8-6.2,22-8.4c2.5,4.8,4.9,9.5,7.4,14.2c-6.3-2.4-13.4-2.2-19.8,1.1l-0.1,0.1
			c-5.8,3.1-10.1,8.2-12.1,14.4c-2,6.3-1.3,13,1.8,18.9c6.1,11.6,21.2,16.3,32.9,10.1l0.2-0.1c6.5-3.5,10.8-9.5,12.3-16.2
			C91.2,180.9,99.1,194.6,107,207.8z"/>
	</g>
	<path class="st7" d="M25.9,3.1c4.6,1.7,9.1,4.4,13.3,7.7c10.4,8,16.9,18.4,19.7,31.2c0.4,1.6,0.5,3.3,0.6,4.9
		c0.3,4.7-1.2,7.7-5.7,10.4c-5.6,3.2-9.7,2-14-1.5c-8.7-7-13.1-16.3-13.9-27.3c-0.2-3.8,0.2-7.6,0.2-11.3C26.2,12.4,26,7.8,25.9,3.1
		z"/>
	<path class="st8" d="M94.1,105.3c-8.3,4.4-16.4,8.6-24.9,13c-1.4-4-2.7-7.9-4-11.8C60.8,93,56.4,79.4,51.9,65.9
		c-0.6-1.8-0.3-2.6,1.3-3.4c6.1-3.2,6.2-3.3,10.2,2c9.8,12.9,19.5,25.8,29.3,38.7C93.2,103.7,93.5,104.4,94.1,105.3z"/>
	<path class="st9" d="M181.8,139.7c9.3-4.9,20.9-1.3,25.6,8c4.7,9.2,1.1,20.6-8.1,25.4c-9.3,4.9-20.8,1.3-25.6-8.1
		C169,155.9,172.6,144.5,181.8,139.7z"/>
	<path class="st10" d="M142.5,85.3c-9.3,4.7-20.6,1.2-25.4-8.1c-4.8-9.3-1.1-20.9,8.2-25.6c9.3-4.8,20.9-1,25.6,8.4
		C155.5,69.3,151.8,80.6,142.5,85.3z"/>
	<path class="st11" d="M206.3,84.2c4.8,9.3,1,21-8.3,25.6c-9.3,4.7-20.6,1-25.4-8.3c-4.8-9.3-1.2-20.6,8-25.4
		C189.9,71.2,201.5,74.9,206.3,84.2z"/>
	<path class="st12" d="M76,152.2c4.8,9.2,1.3,20.6-7.8,25.5c-9.1,4.9-20.8,1.3-25.6-7.7c-5-9.5-1.4-21,8-25.9
		C59.9,139.4,71.1,142.9,76,152.2z"/>
</g>
<g id="Grammar" class="st0">
	<g class="st4">
		<path class="st13" d="M25.4,105.3l-8,18.8H0l29.7-66.4h21.6l30.1,66.4H63.2l-8.4-18.8H25.4z M51.9,96.1l-7.3-16.4
			c-1.8-4-3.3-8.6-4.7-12.4h-0.3c-1.4,3.8-2.7,8.5-4.4,12.4l-7.1,16.4H51.9z"/>
		<path class="st13" d="M82.7,58.6c5.4-0.8,15.1-1.4,24.6-1.4c12.5,0,20.2,1.1,26.5,4.2c5.8,2.5,9.6,6.8,9.6,12.4
			c0,6.1-5.4,11.7-15.4,14.4v0.2c9.8,1.8,18.7,7.3,18.7,16.5c0,5.9-3.6,10.5-8.9,13.7c-6.6,4.1-17.4,6.2-34.3,6.2
			c-9.3,0-16.5-0.5-20.7-0.9V58.6z M99.4,84.8h8.7c11.7,0,18.3-3.9,18.3-9.6c0-6.2-6.6-9.1-17.3-9.1c-4.9,0-7.8,0.2-9.6,0.5V84.8z
			 M99.4,115.3c2.2,0.2,5.1,0.3,8.9,0.3c10.8,0,20.5-3,20.5-11.1c0-7.7-9.3-10.8-21-10.8h-8.4V115.3z"/>
		<path class="st13" d="M216.6,122.2c-4,1.5-12.8,3-23.9,3c-29.4,0-47.3-13.2-47.3-33.4c0-21.9,21.2-35.1,49.5-35.1
			c11.1,0,19.1,1.7,22.5,3l-3.7,9.7c-4.4-1.4-10.4-2.6-18.1-2.6c-18.8,0-32.4,8.5-32.4,24.4c0,14.6,12,23.9,32.3,23.9
			c6.9,0,14-1,18.4-2.5L216.6,122.2z"/>
	</g>
	<path class="st14" d="M47.5,135.8L95.4,187c10.9,15,32.6,16.7,45.6,3.4l115-102l-114.2,61.6c-15.5,8.3-33.9,9.5-50.2,3.1
		L47.5,135.8z"/>
	<path class="st15" d="M47.5,135.8l48.7,33.6c10.6,8.8,25.7,9.3,36.8,1.2L256,88.4l-114.2,61.6c-15.5,8.3-33.9,9.5-50.2,3.1
		L47.5,135.8z"/>
</g>
<g class="st0">
	<path class="st16" d="M171.4,155.9c-2.5-2.4-5-4.9-7.6-7.3c-1.4-1.3-2.1-2.7-2.4-4.4c-0.3-1.1-0.5-2.3-0.4-3.7
		c0.2-7.8,0.2-15.7,0-23.5c-0.1-3.3,1-5.6,3.3-7.9c13.6-13.5,27-27.1,40.7-40.5c2.1-2,2.7-3.5,1.9-5.1c0,0-0.1-0.1-0.1-0.1
		c-3.5-2.8-6.7-6.1-9.6-9.5c-2.8-3.3-4.6-3.4-7.8-0.1c-13.2,13.6-26.8,26.9-40.2,40.4c-2.4,2.4-4.8,3.6-8.3,3.5
		c-7.7-0.2-15.3-0.2-23,0c-3.6,0.1-6.2-0.9-8.8-3.5C96,80.8,82.6,67.7,69.5,54.3c-3-3.1-5.1-4.1-8.1-0.2c-2.4,3-5.2,5.7-8.1,8.1
		c-3.1,2.6-2.7,4.4,0,7.1c11.3,11.1,22.4,22.4,33.6,33.5c2.5,2.4,5,4.9,7.6,7.3c1.4,1.3,2.1,2.7,2.4,4.4c0.3,1.1,0.5,2.3,0.4,3.7
		c-0.2,7.8-0.2,15.7,0,23.5c0.1,3.3-1,5.6-3.3,7.9c-13.6,13.5-27,27.1-40.7,40.5c-2.1,2-2.7,3.5-1.9,5.1c0,0,0.1,0.1,0.1,0.1
		c3.5,2.8,6.7,6.1,9.6,9.5c2.8,3.3,4.6,3.4,7.8,0.1c13.2-13.6,26.8-26.9,40.2-40.4c2.4-2.4,4.8-3.6,8.3-3.5c7.7,0.2,15.3,0.2,23,0
		c3.6-0.1,6.2,0.9,8.8,3.5c13.2,13.4,26.6,26.5,39.7,39.9c3,3.1,5.1,4.1,8.1,0.2c2.4-3,5.2-5.7,8.1-8.1c3.1-2.6,2.7-4.4,0-7.1
		C193.7,178.3,182.6,167.1,171.4,155.9z M141.3,145c-8.1-0.1-16.3-0.1-24.4,0c-2.7,0-3.9-0.7-3.9-3.6c0.1-8.3,0.1-16.6,0-24.9
		c0-2.6,1-3.5,3.5-3.5c8.3,0.1,16.6,0.1,24.9,0c3-0.1,3.7,1.3,3.6,3.9c-0.1,4,0,8,0,12c0,4.2-0.1,8.3,0,12.5
		C145.1,144.1,144,145.1,141.3,145z"/>
	<path class="st17" d="M180.3,132.3c-1.1-1.1-1.8-2-2-2.9c0.1-0.9,0.8-1.9,2-3.1c19.3-19.1,38.4-38.4,57.7-57.5
		c1.7-1.7,2.4-2.8,1.7-4.3c-0.2-1-0.9-2-2.2-3.3c-13.7-13.2-27.1-26.6-40.4-40.1c-3.1-3.1-4.8-3.5-8.1-0.1
		c-18.3,18.7-36.9,37.1-55.4,55.6c-4.5,4.5-4.5,4.5-9.3-0.1c-0.5-0.5-1.1-1-1.6-1.4c-7.2-7.4-14.5-14.6-21.8-21.9
		C90,42.2,79,31.3,68.2,20.2c-2.3-2.4-3.7-2.1-5.9,0.1c-13.9,14.1-27.9,28.2-42.1,42c-2.8,2.7-2.5,4,0.1,6.6
		c19.3,19,38.4,38.3,57.7,57.3c1.1,1.1,1.8,2,2,2.9c-0.1,0.9-0.8,1.9-2,3.1c-19.3,19.1-38.4,38.4-57.7,57.5
		c-1.7,1.7-2.4,2.8-1.7,4.3c0.2,1,0.9,2,2.2,3.3c13.7,13.2,27.1,26.6,40.4,40.1c3.1,3.1,4.8,3.5,8.1,0.1
		c18.3-18.7,36.9-37.1,55.4-55.6c4.5-4.5,4.5-4.5,9.3,0.1c0.5,0.5,1.1,1,1.6,1.4c7.2,7.4,14.5,14.6,21.8,21.9
		c10.9,10.9,21.9,21.8,32.7,32.9c2.3,2.4,3.7,2.1,5.9-0.1c13.9-14.1,27.9-28.2,42.1-42c2.8-2.7,2.5-4-0.1-6.6
		C218.7,170.6,199.6,151.4,180.3,132.3z M205.1,196.5c-2.9,2.4-5.8,5.1-8.1,8.1c-3.1,3.9-5.1,2.9-8.1-0.2
		c-13.1-13.4-26.6-26.5-39.7-39.9c-2.6-2.6-5.2-3.7-8.8-3.5c-7.7,0.3-15.3,0.2-23,0c-3.5-0.1-5.9,1.1-8.3,3.5
		c-13.3,13.5-26.9,26.8-40.2,40.4c-3.2,3.3-5,3.1-7.8-0.1c-2.9-3.4-6.1-6.7-9.6-9.5c-0.1,0-0.1-0.1-0.1-0.1
		c-0.8-1.6-0.1-3.1,1.9-5.1C67,176.6,80.4,162.9,94,149.5c2.3-2.3,3.4-4.5,3.3-7.9c-0.2-7.8-0.2-15.7,0-23.5c0-1.4-0.1-2.6-0.4-3.7
		c-0.3-1.7-1-3.1-2.4-4.4c-2.6-2.4-5.1-4.9-7.6-7.3C75.7,91.6,64.5,80.3,53.2,69.2c-2.8-2.7-3.2-4.5,0-7.1c2.9-2.4,5.8-5.1,8.1-8.1
		c3.1-3.9,5.1-2.9,8.1,0.2C82.6,67.7,96,80.8,109.2,94.2c2.6,2.6,5.2,3.7,8.8,3.5c7.7-0.3,15.3-0.2,23,0c3.5,0.1,5.9-1.1,8.3-3.5
		c13.3-13.5,26.9-26.8,40.2-40.4c3.2-3.3,5-3.1,7.8,0.1c2.9,3.4,6.1,6.7,9.6,9.5c0.1,0,0.1,0.1,0.1,0.1c0.8,1.6,0.1,3.1-1.9,5.1
		c-13.7,13.4-27.1,27.1-40.7,40.5c-2.3,2.3-3.4,4.5-3.3,7.9c0.2,7.8,0.2,15.7,0,23.5c0,1.4,0.1,2.6,0.4,3.7c0.3,1.7,1,3.1,2.4,4.4
		c2.6,2.4,5.1,4.9,7.6,7.3c11.2,11.2,22.3,22.4,33.6,33.5C207.8,192.1,208.2,193.9,205.1,196.5z"/>
	<path class="st17" d="M145,128.8c0-4-0.1-8,0-12c0.1-2.6-0.6-4-3.6-3.9c-8.3,0.1-16.6,0.1-24.9,0c-2.6,0-3.5,0.9-3.5,3.5
		c0.1,8.3,0.1,16.6,0,24.9c0,2.9,1.2,3.7,3.9,3.6c8.1-0.1,16.3-0.1,24.4,0c2.8,0,3.9-0.9,3.8-3.7C144.9,137.2,145,133,145,128.8z"/>
</g>
<g id="Dumb">
	<path class="st18" d="M1,230c0-50,0-100,0-150c2,0.1,2.7-1.7,3.8-2.8c13.8-13.7,27.6-27.5,41.3-41.3c2-2.1,4.1-2.9,7-2.9
		c50.6,0.1,101.2,0.1,151.8,0c2.9,0,4.9,0.8,7,2.9c13.7,13.9,27.5,27.6,41.3,41.3c1.1,1.1,1.8,2.9,3.8,2.9c0,50,0,100,0,150
		c-4.9,9.2-12.8,11.3-22.9,11.2c-70.1-0.3-140.2-0.3-210.3,0C13.9,241.2,6,239.2,1,230z M240.3,96.8c-0.6-0.8-1.1-1.7-1.8-2.4
		C224,80,209.4,65.6,194.9,51.1c-2-2-4.3-2.1-6.9-2.1c-39.3,0-78.6,0-117.8-0.1c-3.6,0-6.2,1.2-8.7,3.7
		C50.7,63.7,39.6,74.6,28.7,85.5c-3.9,3.9-8.6,6.8-11.6,11.5c0,41.3,0,82.6-0.1,123.9c0,4.1,2,4.1,5,4.1
		c71.3-0.1,142.6-0.2,213.9-0.1c4.3,0,5.2-1.4,5.2-5.4c-0.1-39.3,0-78.6,0-117.9C241,100,241.4,98.3,240.3,96.8z"/>
	<path class="st19" d="M240.3,96.8c1.2,1.5,0.7,3.2,0.7,4.8c0,39.3-0.1,78.6,0,117.9c0,4-0.9,5.4-5.2,5.4
		c-71.3-0.1-142.6,0-213.9,0.1c-2.9,0-5,0-5-4.1c0.2-41.3,0.1-82.6,0.1-123.9c5.7-0.1,11.4-0.1,17.1-0.2C97.4,96.9,160.7,97,224,97
		C229.4,96.9,234.8,96.9,240.3,96.8z M224.9,127.1c0-2.8-0.1-5.7,0.2-8.5c0.5-4.5-1.4-5.7-5.7-5.7c-46.1,0.2-92.3,0.2-138.4,0.2
		c-2,0-3.9,0-5.8,1.1c-12.4,7.6-25.7,13.3-38.6,19.9c-2.4,1.2-3.5,2.6-3.5,5.3c0,21.6,0,43.3-0.1,64.9c0,3.4,1.2,4.8,4.6,4.7
		c8.2-0.2,16.3-0.1,24.5-0.2c52.7,0.1,105.3,0.1,158,0.3c3.9,0,5.2-1.2,5.2-5.2C225,178.4,225,152.7,224.9,127.1z"/>
	<path class="st20" d="M34.1,96.9C28.4,96.9,22.7,97,17.1,97c3-4.7,7.8-7.7,11.6-11.5c10.9-11,22-21.8,32.8-32.9
		c2.5-2.6,5.1-3.7,8.7-3.7C109.5,49,148.8,49,188.1,49c2.5,0,4.8,0.1,6.9,2.1c14.5,14.5,29,28.8,43.6,43.3c0.7,0.7,1.2,1.6,1.8,2.4
		c-5.4,0.1-10.8,0.1-16.3,0.2c-0.4-2-2.1-3-3.3-4.2c-7.8-7.8-15.7-15.4-23.3-23.3c-3.1-3.2-6.4-4.6-10.9-4.6
		c-35.8,0.2-71.5,0.5-107.3-0.1c-10-0.2-17.8,1.8-23.7,10c-1,1.3-2.5,2.2-3.6,3.4C46,84.5,39.3,89.9,34.1,96.9z"/>
	<path class="st21" d="M62.1,208.9c-8.2,0-16.3,0-24.5,0.2c-3.5,0.1-4.7-1.3-4.6-4.7c0.1-21.6,0.2-43.3,0.1-64.9
		c0-2.7,1.1-4.1,3.5-5.3c12.9-6.6,26.3-12.3,38.6-19.9c1.8-1.1,3.8-1.1,5.8-1.1c46.1,0,92.3,0,138.4-0.2c4.3,0,6.2,1.2,5.7,5.7
		c-0.3,2.8-0.1,5.7-0.2,8.5c-2.3-0.2-4.2,0.6-6.2,1.6c-50.9,25.4-101.7,50.9-152.6,76.3C64.4,205.8,62.4,206.5,62.1,208.9z"/>
	<path class="st22" d="M62.1,208.9c0.3-2.4,2.3-3.1,4.1-4c50.9-25.4,101.7-50.9,152.6-76.3c2-1,3.9-1.8,6.2-1.6
		c0.1,25.7,0.1,51.3,0.3,77c0,3.9-1.3,5.2-5.2,5.2C167.4,209,114.7,209,62.1,208.9z"/>
	<path class="st18" d="M34.1,96.9c5.2-6.9,11.9-12.4,17.7-18.6c1.1-1.2,2.7-2.1,3.6-3.4c5.9-8.1,13.7-10.1,23.7-10
		c35.7,0.6,71.5,0.3,107.3,0.1c4.5,0,7.8,1.3,10.9,4.6c7.6,7.9,15.5,15.5,23.3,23.3c1.3,1.3,2.9,2.3,3.3,4.2
		C160.7,97,97.4,96.9,34.1,96.9z"/>
</g>
<g id="Egg" class="st0">
	<path class="st23" d="M133,0c-0.1,1.7,1.3,0.9,2,1c12.4,1.7,23.3,6.6,33,14.3c-1.1-0.2-2.2-0.3-3.4-0.5c-0.3-0.7-0.9-1-1.5-1.4
		c-4.7-2.9-9.8-5.1-15.1-6.8c-2.1-0.7-4-1.2-5.8,0.6c-0.5,0.6-1.2,0.4-2,0.3c-3.2-0.5-6.5-0.3-9.7-0.2c-3.3,0.2-6.7,0.5-7.9,4.6
		c-0.3,1-1.4,1.5-2.4,2c-1.7,0.8-3.4,1.7-5.2,2.6c-6.1,2.9-10.3,7-9.5,14.4c-2.8,1.2-5.6,2.3-8.7,2.8c-3.8,0.6-5.7-0.1-7.7-3.3
		c-0.7-2-0.4-4-0.1-6c0.2-1,0.4-1.9,0.7-2.9c1.9-1.5,3.8-3,5.8-4.4c3.1-2.2,4.4-5,3.7-8.8c7.1-4,14.6-6.5,22.7-7.4
		c0.6-0.1,1.7,0.4,1.5-1C126.7,0,129.9,0,133,0z"/>
	<path class="st24" d="M218.7,181.8c-0.3,1-0.6,2.1-1,3.1c-1.4-1.3-1.7-3.4-3-4.9c-0.6-1.9-1.5-3.6-2.6-5.3c-0.7-2.2-2-4.1-3.6-5.8
		c-1.6-1.7-3.3-1.9-5-0.2c-1.5,1.5-2.9,3-4.3,4.6c-6,7.3-11.6,14.9-18.6,21.3c-8.5,7.8-15.3,8.4-24.8,2c-2.8-1.9-5.4-4.1-8.1-6.2
		c-2.9-2.6-5.7-5.4-8.7-7.9c-10.1-8.7-13.3-8.9-24.4-1.5c-0.4,0.3-0.8,0.7-1.2,1c-3.9,2.8-7.8,5.6-11.7,8.3
		c-4.9,3.4-9.7,6.9-15.6,8.2c-5,0.4-9.1-1.6-13.2-4.1c-4.5-2.7-8.3-6.3-12.6-9.2c-1.3-1-2.5-2.1-3.8-3.1c-2.7-2-5.3-4.2-8.8-4.7
		c-0.2-0.2-0.3-0.4-0.5-0.5c-0.2-1.4-0.4-2.7-0.6-4.1c1.6-0.3,2.9,0.5,4.2,1.1c3,1.6,5.7,3.7,8.4,5.8c5.3,4.1,10.4,8.6,16.4,11.8
		c4.4,2.4,8.9,3.7,13.8,1.5c3.3-1.4,6.3-3.3,9.3-5.2c1.2-0.8,2.4-1.5,3.5-2.3c5.3-3.8,10.4-8,16-11.4c6.8-4,10-4.1,16,0
		c3.8,2.7,7.2,5.9,10.6,9c4.5,4.1,9,8.3,14.6,11.1c6.2,3.2,12,2.8,17.5-1.3c5.4-4,9.9-8.9,14-14.2c3.9-4.9,8.1-9.7,12.1-14.5
		c1.6-1.8,3.2-1.7,5-0.3c1,0.8,1.7,1.8,2.3,2.8c1.7,3.1,3.4,6.3,5.1,9.5C216.2,178.6,217.2,180.4,218.7,181.8z"/>
	<path class="st25" d="M47.2,177c0.2,0.2,0.3,0.4,0.5,0.5c0.8,4.2,1.8,8.2,4.4,11.7c-1.1,0.9-1.9,2.2-1.7,3.6
		c0.9,7,3.9,12.9,9.7,17.3c1.5,1.1,3,1.4,4.5-0.1c-0.1,1.3,0.7,2,1.5,2.9c2.3,2.5,5,4.6,7,7.3c-1.2,2.3-3.1,4.1-3.8,6.6
		c-1.3,1.8-1.6,4-2.6,5.9c-15.2-13.1-24.5-29.8-29.3-49.1C39.8,180.3,42.7,177.5,47.2,177z"/>
	<path class="st26" d="M178.4,240.9c-3.8,3.5-8.5,5.4-13.2,7.4c-9.3,4.1-18.9,6.4-29.1,7.3c-17.7,1.6-34.2-2-50.1-9.6
		c-0.5-0.3-1-0.7-1.5-1c0.6-0.8,0.3-1.7,0.1-2.5c-0.4-1.6-0.1-3,1.2-4c6.7,3.3,13.5,6.2,20.7,8.2c11.5,3.1,23.2,4.3,35.1,2.9
		c9.4-1.1,18.6-3.4,27.2-7.4c3-1.4,6.3-2.2,8.5-5C178.5,238.2,178.5,239.5,178.4,240.9z"/>
	<path class="st27" d="M44.9,80.1C51.4,62.3,60,45.5,72.4,31c2.4,0.1,4.7,0.2,5.4,3.2c0,0.4-0.1,0.7-0.1,1.1
		c-2.8,2.2-4.5,5.3-6.4,8.2c-7.2,10.6-12.7,22-17,34c-2,5.6-4.1,11.2-5,17.1c-3.6-1.4-3.5-4.8-4.3-7.7c0-0.3,0-0.7,0-1
		c0-0.2,0-0.4,0-0.5C45,83.6,45.3,81.8,44.9,80.1z"/>
	<path class="st25" d="M86,238.5c-1.3,1.1-1.5,2.5-1.2,4c0.2,0.9,0.5,1.7-0.1,2.5c-3.1-1.6-6.2-3.2-9-5.3c0.2-2.6,0.4-5.3,0.6-7.9
		c1-2,1-4.6,3.3-5.8c1.3,0.1,2.2,1,3.2,1.6c12.6,8.4,26.6,13.3,41.6,14.6c9.6,0.8,19.2,0.4,28.6-2.2c1-0.3,2.1-1.1,3.2-0.2
		c-4.6,3-9.6,5.4-14.8,7.2c-4.5,1.6-9,2-13.7,1.2c-5.7-1-11.2-3-16.6-5c-6.2-2.2-12.2-5-18.7-6C90.1,237,87.8,236.6,86,238.5z"/>
	<path class="st27" d="M214.7,180.1c1.3,1.5,1.5,3.5,3,4.9c-3.7,13.7-9.7,26.3-18.8,37.4c-0.3-0.2-0.7-0.5-1-0.7
		c-1.3-1.9-3.2-3-4.8-4.6C203.3,206.5,210,193.9,214.7,180.1z"/>
	<path class="st25" d="M178.4,240.9c0.1-1.3,0.1-2.6-0.9-3.7c-1-2.9-3.7-2.7-6-3.3c0.1-1,0.9-1.4,1.7-1.8c1.6-0.9,3.3-1.6,4.8-2.7
		c3.1-2.2,6.6-3.8,8.9-7c2.3,1,3.6,3,5.3,4.7c0.2,0.7,0.4,1.3,1.2,1.6C188.9,233.5,183.9,237.5,178.4,240.9z"/>
	<path class="st27" d="M215,89.9c6.7,23.9,9,48.2,6.9,72.8c-1.4-0.4-1.5-1.9-2.3-2.8c-0.2-0.7-0.4-1.4-0.6-2.1
		c0.3-2.8,0.8-5.5,0.9-8.3c0.1-5.9,0-11.7,0.1-17.6c0.1-7.9-0.9-15.7-2.2-23.5c-0.9-5.5-1.5-11.1-3.6-16.3
		C214.5,91.5,214.7,90.7,215,89.9z"/>
	<path class="st28" d="M184.6,31.7c2.3,1.7,3.7,4.1,5.4,6.4c7.7,10.3,13.7,21.6,18.5,33.5c-0.8,1.3-0.9,2.9-1.3,4.4
		c-1.1-0.3-1.1-1.3-1.4-2.1c-1.3-3.7-2.3-7.5-3.9-11.1c-3.6-8.1-8.1-15.6-13.4-22.8c-2.5-3.4-5.7-6.1-7.7-9.9
		C182.2,30.6,183.4,31.1,184.6,31.7z"/>
	<path class="st26" d="M36.6,180.7c-1.5-4.3-1.9-8.8-2.5-13.3c-0.7-4.7-0.8-9.4-0.5-14.1c0.9-0.9,1.7-1.7,2.6-2.6
		c1.2,3.1,0.9,6.3,1.3,9.5c0.6,5.4,1.6,10.6,2.5,16C38.8,177.6,37.7,179.2,36.6,180.7z"/>
	<path class="st25" d="M36.1,150.7c-0.9,0.9-1.7,1.7-2.6,2.6c-0.5-12.5,0.4-25,2.3-37.4c0.8,2.3,1.6,4.6,2.4,6.9
		c-0.9,0.5-1,1.4-1,2.3c-0.5,8.2-0.7,16.5-0.5,24.7C36.5,150.1,36.3,150.4,36.1,150.7z"/>
	<path class="st29" d="M99.3,8.4c0.8,3.8-0.6,6.6-3.7,8.8c-2,1.4-3.9,3-5.8,4.4c-0.5-1.9-1.8-1.8-3.3-1.3c-1.9,0.7-3.5,2-5.7,1.7
		C86.2,16.5,92.4,12,99.3,8.4z"/>
	<path class="st26" d="M44.9,80.1c0.3,1.7,0.1,3.5,0,5.2c0,0.1-0.1,0.1-0.1,0.2c0,0.1,0.1,0.2,0.1,0.4c0,0.3,0,0.7,0,1
		c-0.7,0.2-1,0.7-1.1,1.3c-2.6,9.8-4.8,19.8-5.7,29.9c-1.2-1.3-1.4-3.1-2-4.7c1-8,3.1-15.8,5.3-23.6C42.5,86.6,43.3,83.2,44.9,80.1z
		"/>
	<path class="st29" d="M219.6,160c0.8,0.9,0.9,2.3,2.3,2.8c-0.4,6.5-1.5,12.8-3.2,19c-1.5-1.4-2.4-3.2-3-5.2
		c0.9-3.8,1.7-7.6,2.6-11.4C218.6,163.5,218.4,161.6,219.6,160z"/>
	<path class="st26" d="M76.2,231.8c-0.2,2.6-0.4,5.3-0.6,7.9c-3.4-1.7-6.3-4.1-8.9-6.8c0.9-1.9,1.3-4.1,2.6-5.9
		C71.9,228.1,73.3,231,76.2,231.8z"/>
	<path class="st24" d="M164.7,14.8c1.1,0.2,2.2,0.3,3.4,0.5c4,2.8,7.6,6.1,11,9.7c-0.9,0-1.8,0.1-2.6,0.1c-2.8-2.2-5.8-4.1-9.2-5.3
		c-1.4-0.5-2.9-0.7-4.3,0.1C162.3,17.9,161.9,15.8,164.7,14.8z"/>
	<path class="st24" d="M80.9,22.1c2.2,0.3,3.8-1.1,5.7-1.7c1.5-0.6,2.8-0.7,3.3,1.3c-0.2,1-0.4,1.9-0.7,2.9
		c-1.7-0.6-2.8,0.4-4.1,1.2c-1.9,0.6-3.8,1.1-5.7,1.7c-1.1-0.3-2.1-0.7-3.3-0.6c1.4-1.4,2.8-2.8,4.2-4.3
		C80.5,22.4,80.7,22.3,80.9,22.1L80.9,22.1z"/>
	<path class="st23" d="M207.2,75.9c0.4-1.5,0.5-3,1.3-4.4c2.5,5.2,4.4,10.6,5.7,16.2c-0.9,1.8-0.4,3.9-1,5.7c-0.8-0.7-0.8-1.7-1-2.6
		c-1.2-3.8-2.2-7.7-3.4-11.6c-0.3-0.9-0.3-2-1.5-2.2C207.3,76.6,207.3,76.2,207.2,75.9z"/>
	<path class="st30" d="M176.4,25.2c0.9,0,1.8-0.1,2.6-0.1c2,2.1,4.4,3.9,5.6,6.6c-1.2-0.5-2.5-1.1-3.7-1.6c-3.1-2.1-3.3-2.1-4.7,1.6
		c-2-0.2-3-2-4.8-2.7C171.6,25.6,174,25.4,176.4,25.2z"/>
	<path class="st31" d="M36.6,180.7c1.1-1.5,2.2-3,3.4-4.5c2-1.5,3.9-3.3,6.7-3.2c0.2,1.4,0.4,2.7,0.6,4.1c-4.5,0.5-7.4,3.3-9.8,6.8
		C37.1,182.8,36.8,181.7,36.6,180.7z"/>
	<path class="st31" d="M36.2,113.5c0.6,1.6,0.8,3.4,2,4.7c1.1,2.7,3.4,4.2,5.8,5.7c0,1.3,0.1,2.6-0.6,3.8c-2.5-0.8-3.9-2.7-5.2-4.8
		c-0.8-2.3-1.6-4.6-2.4-6.9C35.9,115.1,36.1,114.3,36.2,113.5z"/>
	<path class="st29" d="M76.1,26.8c1.2-0.1,2.2,0.3,3.3,0.6c0.5,0.9,1,1.7,1.5,2.6c0,0.7,0,1.4,0,2.1c-1.4,0.2-1.9,1.5-3,2.1
		c-0.6-3-3-3.1-5.4-3.2C73.5,29.5,74.5,27.9,76.1,26.8z"/>
	<path class="st26" d="M193.2,228.7c-0.7-0.3-1-1-1.2-1.6c2-1.8,4.4-3,5.8-5.4c0.3,0.2,0.7,0.5,1,0.7
		C197.5,224.9,195.7,227.1,193.2,228.7z"/>
	<path class="st24" d="M213.3,93.4c0.6-1.8,0.2-3.9,1-5.7c0.2,0.8,0.5,1.5,0.7,2.3c-0.3,0.8-0.5,1.5-0.8,2.3
		c-0.5,1.9-0.9,3.8-0.6,5.8c0,0.5,0,0.9,0,1.4l-0.2,0.1C213.3,97.4,213.3,95.4,213.3,93.4z"/>
	<path class="st29" d="M80.9,22.1c-0.2,0.2-0.4,0.3-0.6,0.5C80.5,22.4,80.7,22.3,80.9,22.1z"/>
	<path class="st30" d="M164.7,14.8c-2.8,1-2.4,3-1.7,5.1c0.4,1.4,0.8,2.8,1.2,4.2c-0.6,0.7-1.4,0.6-2.2,0.3
		c-5-1.7-10.2-2.2-15.4-1.8c-3.4,0.3-6.9,0.3-9.9,2.6c-0.7-0.2-1.5-0.4-2.2-0.5c-5.6-2.5-11.1-1.7-16.5,0.7
		c-4.1,1.9-8.3,3.7-12.4,5.6c-0.9-7.5,3.4-11.5,9.5-14.4c1.7-0.8,3.4-1.7,5.2-2.6c1-0.5,2.1-1,2.4-2c1.2-4.1,4.6-4.4,7.9-4.6
		c3.2-0.2,6.5-0.4,9.7,0.2c0.7,0.1,1.4,0.2,2-0.3c1.8-1.9,3.7-1.3,5.8-0.6c5.3,1.7,10.3,3.9,15.1,6.8
		C163.7,13.8,164.4,14.2,164.7,14.8z"/>
	<path class="st24" d="M105.6,31c4.1-1.9,8.3-3.8,12.4-5.6c5.4-2.4,10.9-3.2,16.5-0.7c0,1-0.7,1.3-1.4,1.5c-0.9,0.3-1.5,0.7-1.6,1.7
		c-6.6-1.2-12.4,1-18,4.1c-4.3,1.5-8.1,4.1-12.5,5.4c-3.4,1-6.8,1.8-10.1-0.1c-1.6-2-2.6-4.2-1.7-6.8c2,3.2,3.9,3.9,7.7,3.3
		C100,33.4,102.8,32.2,105.6,31z"/>
	<path class="st28" d="M89.2,30.5c-1,2.6,0,4.8,1.7,6.8c-2.1,2.4-4.5,4.6-5.3,7.9c-2.3-1.2-3.2-3.4-3.7-5.7c-0.5-2.5-0.8-5-1.1-7.4
		c0-0.7,0-1.4,0-2.1c2.1-0.8,3.5-2.2,4.2-4.3c1.3-0.8,2.4-1.8,4.1-1.2C88.9,26.6,88.6,28.6,89.2,30.5z"/>
	<path class="st23" d="M219.6,160c-1.2,1.5-1,3.5-1.4,5.2c-0.8,3.8-1.7,7.6-2.6,11.4c-1.7-3.2-3.3-6.4-5.1-9.5
		c-0.6-1.1-1.3-2-2.3-2.8c-1.8-1.4-3.5-1.5-5,0.3c-4.1,4.8-8.2,9.5-12.1,14.5c-4.2,5.3-8.6,10.2-14,14.2c-5.6,4-11.4,4.5-17.5,1.3
		c-5.5-2.9-10-7-14.6-11.1c-3.4-3.1-6.8-6.4-10.6-9c-6-4.2-9.2-4.1-16,0c-5.6,3.3-10.7,7.6-16,11.4c-1.1,0.8-2.3,1.5-3.5,2.3
		c-0.1-1-0.9-1.4-1.7-1.9c-1.9-1.3-3.8-2.7-5.8-4c2.7-3.4,5.5-6.7,7.5-10.6c1.9-2.7,3.8-5.5,5.7-8.2c3.1-4.4,6.5-8.5,11.1-11.5
		c7.7-5.1,15.9-4.9,23.2,0.6c3.5,2.6,6.4,6,9,9.5c5.1,6.8,8.9,14.5,13.9,21.4c5,6.8,8.1,6.7,12.8-0.3c5-7.4,8.8-15.6,13-23.4
		c2.9-5,5.5-10.2,9.9-14.3c2.5-2.3,5.1-4,8.6-3.4c3,0.9,5.3,2.8,7.3,5.1c2.2,3.4,3.9,7.1,5.5,10.9
		C219.2,158.6,219.4,159.3,219.6,160z"/>
	<path class="st28" d="M86.2,198.7c6-1.3,10.8-4.8,15.6-8.2c3.9-2.7,7.8-5.5,11.7-8.3c0.4,0.4,0.7,0.8,1.1,1.1
		c8.2,4.6,16.9,7.1,26.2,7.9c2.3,0.2,4.7,0.6,7-0.5c2.7,2.1,5.3,4.3,8.1,6.2c9.5,6.4,16.3,5.8,24.8-2c7-6.4,12.6-14,18.6-21.3
		c1.3-1.6,2.8-3.1,4.3-4.6c1.7-1.7,3.4-1.5,5,0.2c1.6,1.7,2.8,3.6,3.6,5.8c-1.1,2.8-2,5.8-3.4,8.5c-1.8,3.7-3,7.7-6,10.7
		c-1.6-2.7-3.2-2.9-5.6-0.6c-3.2,3.1-5,7-5.2,11.5c-2.2,0.8-4.5,0.5-6.8,0.5c-1.9,0-3.7,0.3-5.3,1.4c-5.3,3.5-10.9,6.3-16.9,8.4
		c-7.7,2.6-15.5,4.3-23.7,4c-0.9,0-1.8,0.1-2.2-1c5.3-5.3,6.1-13.5,2-19.2c-3.3-4.6-8.6-4.7-12.1-0.3c-4.2,5.3-3.5,13.7,1.7,19.4
		c-0.9,0.8-2,0.6-3,0.4c-11.8-2.1-22.7-6.3-32.4-13.2C90.8,203.4,87.7,201.9,86.2,198.7z"/>
	<path class="st32" d="M86.2,198.7c1.5,3.2,4.6,4.7,7.2,6.6c9.8,6.9,20.7,11.1,32.4,13.2c1,0.2,2.1,0.3,3-0.4
		c2.8,1.8,5.6,1.3,8.4,0.1c0.3,1.1,1.3,1,2.2,1c8.2,0.3,16-1.4,23.7-4c6-2,11.6-4.8,16.9-8.4c1.6-1,3.4-1.4,5.3-1.4
		c2.3,0,4.6,0.3,6.8-0.5c0,0.3,0.1,0.7,0.1,1c-0.1,1.7,0.4,3.2,2,3.9c1.6,0.7,2.9-0.4,3.9-1.5c3.6-4.1,5.7-8.7,4.8-14.3
		c2.9-3,4.2-7,6-10.7c1.3-2.7,2.3-5.7,3.4-8.5c1.1,1.6,2,3.4,2.6,5.3c-4.7,13.8-11.5,26.4-21.6,37c-6-3.6-12-3.1-18.2-0.5
		c-2.6,1.1-5.1,2.3-7.6,3.5c-6.2,3.1-12.2,6.6-18.5,9.5c-10.6,4.9-21.3,5-32.2,0.9c-6.4-2.4-12.4-5.8-18.5-8.9
		c-5-2.6-9.9-5.3-15.6-6.1c-0.1-0.6-0.4-1.1-0.9-1.5c-6.3-5.1-11.7-11-16-17.8c-2.1-3.3-4.7-6.5-5.2-10.7c4.3,3,8.2,6.5,12.6,9.2
		C77.1,197.1,81.2,199.2,86.2,198.7z"/>
	<path class="st29" d="M91.4,182.1c1.9,1.3,3.8,2.7,5.8,4c0.7,0.5,1.6,0.9,1.7,1.9c-3,1.9-6.1,3.8-9.3,5.2
		c-4.9,2.1-9.4,0.8-13.8-1.5c-6-3.2-11.1-7.7-16.4-11.8c-2.7-2.1-5.4-4.2-8.4-5.8c-1.3-0.7-2.6-1.5-4.2-1.1
		c-2.8-0.1-4.7,1.7-6.7,3.2c-0.9-5.3-1.9-10.6-2.5-16c-0.4-3.2-0.1-6.4-1.3-9.5c0.2-0.3,0.4-0.6,0.5-0.9c2-1.3,4.1-2.7,6.3-3.7
		c2.8-0.6,5.5-0.5,7.8,1.6c5.7,6.4,10.1,13.8,15,20.9c3.2,4.6,6.4,9.2,10.6,13C82.1,186.7,85.4,186.7,91.4,182.1z"/>
	<path class="st27" d="M60.3,185.4c0.5,4.2,3.1,7.3,5.2,10.7c4.3,6.8,9.7,12.7,16,17.8c0.5,0.4,0.8,0.9,0.9,1.5
		c-3.9,0.2-6.8,2.4-9.5,5c-2-2.7-4.7-4.9-7-7.3c-0.8-0.8-1.6-1.6-1.5-2.9c0.4-1.3,0.6-2.5,0.4-3.9c-1-5.5-3.6-10.2-7.4-14.3
		c-1.4-1.5-3.1-2.9-5.5-2.7c-2.6-3.5-3.6-7.6-4.4-11.7c3.5,0.6,6.1,2.7,8.8,4.7C57.9,183.2,59.1,184.3,60.3,185.4z"/>
	<path class="st33" d="M147.8,190.7c-2.3,1.1-4.7,0.7-7,0.5c-9.3-0.7-18.1-3.3-26.2-7.9c-0.4-0.2-0.7-0.7-1.1-1.1
		c0.4-0.3,0.8-0.7,1.2-1c11.1-7.4,14.3-7.2,24.4,1.5C142.1,185.3,144.9,188,147.8,190.7z"/>
	<path class="st29" d="M73,220.3c2.7-2.6,5.6-4.7,9.5-5c5.7,0.7,10.6,3.5,15.6,6.1c6.1,3.2,12,6.5,18.5,8.9
		c10.9,4.1,21.6,4,32.2-0.9c6.3-2.9,12.3-6.3,18.5-9.5c2.5-1.3,5.1-2.4,7.6-3.5c6.1-2.6,12.2-3.1,18.2,0.5c1.6,1.6,3.5,2.7,4.8,4.6
		c-1.4,2.4-3.8,3.7-5.8,5.4c-1.6-1.7-3-3.8-5.3-4.7c-3.6-2-7.2-1-10.7,0.2c-6.5,2.3-12.5,5.5-18.4,8.9c-14.8,8.7-30,9.9-45.8,3.3
		c-6.5-2.7-12.9-5.6-19.3-8.3c-3-1.3-6.1-2.2-9.4-2.1c-1.4,0-2.8,0.2-3.6,1.7c-2.3,1.3-2.3,3.8-3.3,5.8c-2.9-0.8-4.3-3.7-7-4.8
		C70,224.5,71.8,222.6,73,220.3z"/>
	<path class="st31" d="M52.1,189.3c2.4-0.2,4,1.2,5.5,2.7c3.8,4,6.4,8.7,7.4,14.3c0.2,1.3,0,2.6-0.4,3.9c-1.5,1.4-3,1.2-4.5,0.1
		c-5.7-4.3-8.8-10.2-9.7-17.3C50.2,191.4,51,190.2,52.1,189.3z"/>
	<path class="st29" d="M171.5,233.9c2.3,0.6,5,0.4,6,3.3c-2.2,2.8-5.5,3.6-8.5,5c-8.6,4-17.8,6.4-27.2,7.4
		c-11.9,1.4-23.5,0.1-35.1-2.9c-7.2-1.9-14-4.9-20.7-8.2c1.9-1.9,4.2-1.5,6.4-1.2c6.6,1,12.6,3.7,18.7,6c5.4,2,10.8,4,16.6,5
		c4.7,0.8,9.2,0.4,13.7-1.2c5.2-1.9,10.2-4.2,14.8-7.2C161.2,237.6,165.9,234.6,171.5,233.9z"/>
	<path class="st29" d="M44,123.8c-2.4-1.4-4.7-3-5.8-5.7c0.9-10.2,3.1-20.1,5.7-29.9c0.2-0.6,0.4-1.1,1.1-1.3
		c0.8,2.9,0.7,6.4,4.3,7.7c2.1,0.6,4.2,0.2,6.3-0.3c-0.4,2-0.8,3.9-1.2,5.9c-1.4,7.6-3.1,15.2-3,23.1C49,124.7,46.5,124,44,123.8z"
		/>
	<path class="st32" d="M55.6,94.3c-2.1,0.5-4.2,0.9-6.3,0.3c0.9-5.9,3-11.5,5-17.1c4.2-12,9.8-23.4,17-34c1.9-2.9,3.6-6,6.4-8.2
		c0,3,0,6,0,9c-3,3.5-5.4,7.3-6.9,11.7c-1.6-1.8-3.3-1.7-5-0.2c-3,2.5-4.1,6-4.8,9.6c-0.6,3.1-0.9,6.3,1.3,9
		c-3.3,6.1-4.7,12.8-6.2,19.4C55.9,93.9,55.8,94.1,55.6,94.3z"/>
	<path class="st23" d="M77.7,44.3c0-3,0-6,0-9c0-0.4,0.1-0.7,0.1-1.1c1.1-0.5,1.6-1.9,3-2.1c0.4,2.5,0.6,5,1.1,7.4
		c0.5,2.3,1.3,4.5,3.7,5.7c1.8,1.1,3.8,1.3,5.8,0.8c2.3-0.5,4.5-1.2,6.8-1.8c0.1,1.3-0.5,2.3-0.9,3.5c-0.4,1.1-1.2,2.2-0.2,3.4
		c-5.1,1.6-10.2,1.5-15.3-0.5C79.7,49,78.4,46.8,77.7,44.3z"/>
	<path class="st29" d="M44.9,85.9c0-0.1-0.1-0.2-0.1-0.4c0,0,0.1-0.1,0.1-0.2C44.9,85.5,44.9,85.7,44.9,85.9z"/>
	<path class="st27" d="M171.5,233.9c-5.6,0.7-10.2,3.7-15.2,5.9c-1.1-0.8-2.2,0-3.2,0.2c-9.4,2.6-19.1,3-28.6,2.2
		c-15-1.2-29-6.2-41.6-14.6c-1-0.7-1.9-1.6-3.2-1.6c0.7-1.5,2.2-1.6,3.6-1.7c3.3-0.1,6.4,0.8,9.4,2.1c6.5,2.7,12.9,5.6,19.3,8.3
		c15.8,6.7,31,5.4,45.8-3.3c5.9-3.4,11.9-6.6,18.4-8.9c3.5-1.2,7.1-2.2,10.7-0.2c-2.3,3.2-5.8,4.9-8.9,7c-1.5,1-3.2,1.8-4.8,2.7
		C172.4,232.5,171.6,232.9,171.5,233.9z"/>
	<path class="st28" d="M219,158c-1.6-3.7-3.2-7.5-5.5-10.9c0.9-1.2,1-2.6,1.2-4c0.7-6.4,0.5-12.7,0.5-19.1c0-1-0.3-2,0.4-2.8
		c1.6-1.7,1.2-3.8,1-5.7c-0.2-2.3-0.5-4.7-1-7c-0.7-3.5-0.5-7.1-2.1-10.5c-0.3-2,0.1-3.9,0.6-5.8c2.1,5.3,2.7,10.8,3.6,16.3
		c1.3,7.8,2.3,15.6,2.2,23.5c-0.1,5.9,0.1,11.7-0.1,17.6C219.9,152.4,219.3,155.2,219,158z"/>
	<path class="st34" d="M176.3,31.6c1.3-3.6,1.5-3.7,4.7-1.6c2,3.8,5.2,6.5,7.7,9.9c5.2,7.2,9.8,14.7,13.4,22.8
		c1.6,3.6,2.6,7.4,3.9,11.1c0.3,0.8,0.3,1.8,1.4,2.1c0,0.3,0.1,0.7,0.1,1c-0.4,3.2-0.6,6.5-1.1,9.6c-0.8,5.2-4.6,8.1-9.9,7.7
		c-0.9-0.1-1.7-0.2-2.6-0.3c-0.2-0.2-0.5-0.4-0.7-0.6c1.2-0.7,1.1-1.9,1.1-3c0.4-6-1.2-11.8-2.1-17.6c0-0.1,0-0.3,0-0.4
		c1.1-0.7,1.6-1.8,1.7-3.1c0.5-3.9-0.5-7.4-2.5-10.7c-1.2-2-1.8-4.6-4.5-5.3c0-1.4-1.4-1.2-2.1-1.9c-0.2-4.4-3.4-7.1-5.7-10.3
		c-0.8-1.1-1.6-2.4-3.2-2.5C175.9,36.2,176.1,33.9,176.3,31.6z"/>
	<path class="st27" d="M43,146.1c-2.3,1-4.3,2.3-6.3,3.7c-0.2-8.2,0-16.5,0.5-24.7c0.1-0.9,0.1-1.8,1-2.3c1.3,2.1,2.8,4,5.2,4.8
		c0,0.2,0.1,0.3,0.1,0.4C43.6,134.1,42.6,140.1,43,146.1z"/>
	<path class="st35" d="M164.2,24.2c-0.4-1.4-0.8-2.8-1.2-4.2c1.4-0.8,2.8-0.6,4.3-0.1c3.4,1.2,6.4,3,9.2,5.3
		c-2.4,0.2-4.9,0.5-4.9,3.8c-0.1,0.1-0.3,0.1-0.4,0.2c-1.2-2.3-4.1-4-6-3.7C164.8,25,164.5,24.6,164.2,24.2z"/>
	<path class="st32" d="M85.1,25.8c-0.7,2.1-2.2,3.5-4.2,4.3c-0.5-0.9-1-1.7-1.5-2.6C81.3,26.9,83.2,26.3,85.1,25.8z"/>
	<path class="st30" d="M193.7,94c0.9,0.1,1.7,0.2,2.6,0.3c5.3,0.4,9.1-2.5,9.9-7.7c0.5-3.2,0.8-6.4,1.1-9.6c1.2,0.3,1.3,1.4,1.5,2.2
		c1.2,3.8,2.2,7.7,3.4,11.6c0.3,0.9,0.2,1.9,1,2.6c0,2,0.1,4.1,0.1,6.1c0,2.5-0.1,5-0.1,7.4c-0.1,1.1-0.1,2.2-0.2,3.3
		c-0.7,3.9-0.9,7.8-2.5,11.5c-2.3,5-6.2,5.7-9.8,1.6c-4.2-4.8-7.2-10.6-10.2-16.2C191.9,102.8,193.6,98.6,193.7,94z"/>
	<path class="st36" d="M171.1,29.1c0.1,0,0.3-0.1,0.4-0.2c1.7,0.7,2.8,2.5,4.8,2.7c-0.2,2.3-0.4,4.5-0.6,6.8
		c-0.2,0.6-0.4,1.1-0.6,1.7c-1.7-0.5-2.7-2.3-4.6-2.7c0-0.4,0-0.8,0.1-1.1C171.5,34,170.9,31.5,171.1,29.1z"/>
	<path class="st24" d="M43.5,128.1c0-0.1-0.1-0.3-0.1-0.4c0.7-1.2,0.6-2.5,0.6-3.8c2.5,0.1,5,0.8,7.4-0.5c4.7-1.4,7.9-4.8,10.9-8.4
		c6.3-7.5,10.8-16.1,16.2-24.3c2.7-4.2,5.3-8.5,9.7-11.2c2.2-0.8,3.9-0.1,5.5,1.5c1.3,1.3,2.3,2.8,3.3,4.4c3,5.1,5,10.6,7.6,15.9
		c1.6,3.5,2.6,7.2,4.9,10.4c1.9,3.9,4.1,7.5,6.9,10.7c5.6,6.7,12.2,7.5,19.3,2.5c4.8-3.2,8-7.9,11.1-12.6c0.2-0.2,0.4-0.4,0.5-0.6
		c0.8,0,1.5,0.4,2.1,0.9c-1.2,1.9-2.3,3.9-3.5,5.8c-2.8,3.3-5.3,6.9-8.6,9.8c-7.3,6.3-14.7,6.3-20.9-0.9
		c-6.1-7.2-9.7-15.9-13.3-24.5c-2.2-5.2-4.2-10.4-7.4-15c-3.7-5.4-6.9-5.5-11.2-0.5c-1.5,1.1-2.5,2.7-3.5,4.2
		c-4.8,7.4-9.4,15-14.4,22.3c-4.1,6.1-8.6,11.8-15.8,14.6C48.3,128.7,45.9,128.7,43.5,128.1z"/>
	<path class="st33" d="M213,110.3c0.1-1.1,0.1-2.2,0.2-3.3c0.9-2.5,0.3-5,0.4-7.5c0-0.5,0-0.9,0-1.4c1.6,3.3,1.4,7,2.1,10.5
		c0.5,2.3,0.7,4.7,1,7c0.2,2,0.6,4-1,5.7c-0.7,0.8-0.4,1.8-0.4,2.8c0,6.4,0.2,12.8-0.5,19.1c-0.2,1.4-0.3,2.8-1.2,4
		c-2-2.3-4.3-4.2-7.3-5.1c0.7-4.2,1.9-8.3,2.1-12.5c1.6-1.8,2.7-3.9,3.2-6.2C212.5,119,213.1,114.6,213,110.3z"/>
	<path class="st28" d="M213.6,99.4c0,2.5,0.5,5-0.4,7.5c0-2.5,0.1-5,0.1-7.4C213.4,99.5,213.6,99.4,213.6,99.4z"/>
	<path class="st36" d="M164.2,24.2c0.3,0.4,0.6,0.8,0.8,1.2c0.2,1,0.4,2.1,0.5,3.1c0,0.7-0.1,1.5-0.6,1.9c-0.7,0.6-1.2-0.3-1.8-0.6
		c-1.6-1.1-3.4-1.9-5.2-2.4c-5.7-1.7-11.4-2.5-17,0c-0.2,0-0.3-0.1-0.5-0.1c-1.2-0.7-2.5-1.3-3.7-2c2.9-2.3,6.5-2.3,9.9-2.6
		c5.2-0.5,10.4,0.1,15.4,1.8C162.8,24.7,163.6,24.8,164.2,24.2z"/>
	<path class="st32" d="M136.7,25.3c1.2,0.7,2.5,1.3,3.7,2c-1.1,0.8-2.6,1-3.2,2.3c-0.5,0-1,0.1-1.5,0.1c-1.4-0.6-2.8-1.2-4.2-1.7
		c0-1,0.7-1.4,1.6-1.7c0.7-0.2,1.5-0.5,1.4-1.5C135.3,24.9,136,25.1,136.7,25.3z"/>
	<path class="st33" d="M98.3,44.3c-2.3,0.6-4.5,1.3-6.8,1.8c-2,0.5-4,0.3-5.8-0.8c0.8-3.3,3.2-5.5,5.3-7.9c3.4,1.9,6.8,1.1,10.1,0.1
		c4.4-1.3,8.2-3.9,12.5-5.4c0,0.9-0.7,1.4-1.1,2c-0.9,1.9-3.2,2.8-3.7,5C105.5,41.2,101.7,42.4,98.3,44.3z"/>
	<path class="st34" d="M108.8,39.1c0.4-2.2,2.7-3.1,3.7-5c0.3-0.7,1.1-1.2,1.1-2c5.6-3.1,11.4-5.3,18-4.1c1.4,0.6,2.8,1.2,4.2,1.7
		c-0.3,1.9-0.8,3.7-0.7,5.7c-6.6-3.2-13.1-3.9-19.4,0.4C113.3,36.9,111.1,38,108.8,39.1z"/>
	<path class="st35" d="M208.3,129.4c-0.2,4.3-1.5,8.3-2.1,12.5c-3.6-0.6-6.2,1.1-8.6,3.4c-4.3,4-7,9.2-9.9,14.3
		c-6.3-0.3-12.6-0.7-18.8-1.7c-15.8-2.5-30.8-7.4-44.7-15.4c-15-8.6-27.6-19.8-38-33.7c-1.8-2.4-2.3-5.2-3.8-7.7
		c0.1-4.7,1.6-9.2,2-13.9c4.4-5,7.6-4.9,11.2,0.5c3.2,4.7,5.2,9.9,7.4,15c3.6,8.6,7.2,17.3,13.3,24.5c6.1,7.2,13.6,7.2,20.9,0.9
		c3.3-2.9,5.8-6.5,8.6-9.8c4.2,1.2,8.5,0.7,12.7-0.1c2.9-0.6,5.8-1.3,8.7-1.9c3.4,4.3,6.9,5.3,11.5,3.2c4.5-2.1,7.6-5.8,10.1-10
		c0.1,0,0.3,0,0.4,0c3.3,5.8,6.4,11.8,10.5,17.2C202.9,130.9,204.2,131.2,208.3,129.4z M178.8,128.1c-0.2,0-0.4-0.1-0.6-0.1
		c-0.8-2.8-2.6-4.8-5.6-5.2c-3.1-0.4-5,1.4-6.3,3.8c-4,7.3-3.9,14.7,0,22c2.7,5,7.9,5,11.1,0.2c2.3-3.4,3-7.2,3-11.2
		c0-0.2,0.1-0.4,0.1-0.6c3.3-1.6,5.1-4.3,6.1-7.7c0.5-1.9-0.6-3-2.4-2.8C182.4,126.8,180.4,126.8,178.8,128.1z"/>
	<path class="st33" d="M82.4,101.2c1.5,2.4,2,5.3,3.8,7.7c10.3,13.9,23,25.2,38,33.7c13.9,8,29,12.8,44.7,15.4
		c6.2,1,12.5,1.4,18.8,1.7c-4.2,7.9-8,16-13,23.4c-4.7,7-7.8,7.1-12.8,0.3c-5-6.9-8.9-14.5-13.9-21.4c-2.6-3.5-5.5-6.9-9-9.5
		c-7.4-5.5-15.5-5.7-23.2-0.6c-4.6,3-8,7.1-11.1,11.5c-1.9,2.7-3.8,5.5-5.7,8.2c-1.2-1.6-2.5-3.1-3.7-4.7c-3.6-4.9-7-9.9-8.5-16
		c6.8-5.7,7.2-21.3,0.8-27.3c-1.7-1.6-3.7-2.4-6-1.9c0-4.2-0.3-8.4,0-12.5C81.7,106.4,81.5,103.7,82.4,101.2z"/>
	<path class="st28" d="M86.7,150.8c1.5,6.1,5,11.1,8.5,16c1.2,1.6,2.5,3.1,3.7,4.7c-2,3.9-4.8,7.2-7.5,10.6c-6,4.6-9.3,4.6-15-0.6
		c-4.2-3.8-7.4-8.4-10.6-13c-4.9-7-9.3-14.4-15-20.9c-0.6-6.4-0.8-12.8,0-19.3c7.2-2.8,11.7-8.5,15.8-14.6
		c4.9-7.3,9.6-14.9,14.4-22.3c1-1.5,2-3.1,3.5-4.2c-0.4,4.7-1.9,9.2-2,13.9c-0.9,2.6-0.8,5.3-1,7.9c-0.3,4.1,0,8.3,0,12.5
		c-3.5,1.4-5.7,4.1-6.6,7.6c-1.3,4.8-1.4,9.7,0,14.5c0.7,2.4,1.7,4.6,3.5,6.4C81,152.7,83.6,153,86.7,150.8z"/>
	<path class="st31" d="M137.3,218.1c-2.8,1.3-5.6,1.8-8.4-0.1c-5.2-5.7-5.9-14.1-1.7-19.4c3.5-4.4,8.8-4.3,12.1,0.3
		C143.4,204.7,142.5,212.8,137.3,218.1z"/>
	<path class="st31" d="M202.8,194c0.8,5.6-1.3,10.2-4.8,14.3c-1,1.1-2.2,2.2-3.9,1.5c-1.6-0.7-2.1-2.2-2-3.9c0-0.3-0.1-0.7-0.1-1
		c0.2-4.5,2-8.4,5.2-11.5C199.6,191.1,201.2,191.3,202.8,194z"/>
	<path class="st32" d="M50.8,128.4c-0.8,6.4-0.6,12.8,0,19.3c-2.3-2.1-5-2.1-7.8-1.6c-0.4-6,0.6-12,0.5-18
		C45.9,128.7,48.3,128.7,50.8,128.4z"/>
	<path class="st23" d="M88.3,79.5c-4.5,2.7-7,7-9.7,11.2c-5.3,8.1-9.9,16.8-16.2,24.3c-3,3.6-6.2,7-10.9,8.4
		c-0.1-7.8,1.5-15.4,3-23.1c0.4-2,0.8-3.9,1.2-5.9c0.2-0.2,0.4-0.4,0.5-0.6c4.4-1.9,7.6-5.3,11.1-8.3c3.4-2.6,6.6-5.4,10.1-7.9
		c3.4-2.4,7.1-4.5,11.4-4.8C88.6,75,88.4,77.2,88.3,79.5z"/>
	<path class="st28" d="M67.2,85.5c-3.5,3-6.7,6.4-11.1,8.3c1.5-6.6,2.9-13.3,6.2-19.4c2.3,1.2,3.9-0.2,5.1-1.9
		c3.6-5,5.1-10.4,3.3-16.5c1.5-4.4,3.8-8.2,6.9-11.7c0.7,2.6,2,4.8,4.2,6.3c-1.3,1-2,2.4-2.7,3.8c-3.2,6.1-6.3,12.3-8.5,18.8
		C69.3,77.2,67.3,81.1,67.2,85.5z"/>
	<path class="st31" d="M70.8,56c1.8,6.1,0.3,11.5-3.3,16.5c-1.2,1.6-2.8,3-5.1,1.9c-2.3-2.7-1.9-5.9-1.3-9c0.7-3.6,1.8-7.1,4.8-9.6
		C67.6,54.3,69.2,54.2,70.8,56z"/>
	<path class="st33" d="M67.2,85.5c0.1-4.4,2.1-8.3,3.5-12.3c2.2-6.5,5.4-12.7,8.5-18.8c0.7-1.4,1.4-2.8,2.7-3.8
		c5,2.1,10.1,2.1,15.3,0.5c0.2,0,0.4,0.1,0.5,0.1c0,1.9-0.8,3.5-1.6,5.2c-2.7,5.2-5.1,10.4-6.8,16c-0.2,0.1-0.4,0.2-0.5,0.3
		c-4.3,0.4-8,2.4-11.4,4.8C73.9,80.1,70.6,82.8,67.2,85.5z"/>
	<path class="st30" d="M97.7,51.2c-0.2,0-0.4-0.1-0.5-0.1c-1-1.2-0.2-2.3,0.2-3.4c0.4-1.1,1-2.2,0.9-3.5c3.4-1.9,7.2-3,10.5-5.1
		c2.3-1.1,4.6-2.2,6.9-3.3c0.7,1.5-0.7,2.1-1.2,3.1c-1.1,1.9-3.1,3.4-3,5.9c-2.8,2-6,3.2-8.9,4.9C100.9,50.2,99.3,50.7,97.7,51.2z"
		/>
	<path class="st37" d="M135.1,35.4c-0.1-1.9,0.4-3.8,0.7-5.7c0.5,0,1-0.1,1.5-0.1c0.3,1,1.2,1.2,2,1.5c3.4,1.4,3.4,1.4,4.5-2.1
		c4.5-2.2,8.9-2.2,13.3,0.3c0.9,0.5,2,1.1,1.8,2.3c-0.2,1.3-1.4,1.3-2.4,1.5c-2.7,0.6-5.5,0.3-8.7,1.7c3,1,5.5,1.7,8,2.3
		c4.5,1.1,8.6,1.5,10.5-4.7c0.9,2.7,2.2,3.9,4.4,3.9c0,0.4,0,0.8-0.1,1.1c-0.7,0.5-0.9,1.3-1.2,2.1c-2.3,1.9-2.3,1.9,0.1,3.5
		c0.5,0.3,1,0.7,1.5,1c2.1,1.5,2.5,1.4,3.1-1.3c0.9-0.7,1.2-1.6,1-2.6c0.2-0.6,0.4-1.1,0.6-1.7c1.6,0.1,2.4,1.4,3.2,2.5
		c2.3,3.2,5.6,5.9,5.7,10.3c-0.3,0-0.6,0-1,0.1c-2.2,0.4-3.1,1.6-2.4,3.8c-0.9,3.7,0.4,7,2.3,10.1c0.5,1.6,1.5,3,2.7,4.2
		c1.4,1.9,3.2,3.2,5.8,3.2c0.9,5.9,2.5,11.6,2.1,17.6c-0.1,1.1,0.1,2.3-1.1,3c-1-0.2-1.9-0.6-2.7-1.2c-1.1-1.7-2.7-2.9-4.2-4.1
		c-1.6-3-4.2-5.4-6.2-8.1c-2-2.6-2.9-2.5-5.4-0.4c-0.7,0.6-1.2,1-2.3,0.7c-3.1-1-4.8-0.3-6.8,2.2c-1.1,1.4-1.9,3-3.3,4l-0.2,0
		c0-2-0.6-3.9-1.2-5.9c-0.4-1.4-1.1-1.7-2.2-0.6c-1.8,1.8-3.9,3.3-5.2,5.5c-2.8,2.4-5.6,4.8-8.5,7.2c-0.4-1.1-1.4-1.5-2.3-1.9
		c-4.9-2.5-9-5.8-12-10.5c1.8-1,3.5-2.2,4.4-4.2c3.9-5.2,3.9-16.2,0.1-22.2c-0.5-0.9-1-1.9-2.1-2.2c-1-1.2-2.4-1.3-3.8-1.6
		c-0.2-4.3,2.5-6.9,5.4-9.5c1.7,0.7,3.5,1.5,5.2,2.2c1.1,1.2,2.7,1.6,4.1,2.2c2.9,2.3,2.9,2.3,9.3-2.1c-1.9-0.7-3.8-1.4-5.7-2.1
		c-1.2-0.3-2.3-1.2-3.6-1c-2.3-2-5.1-3-8-3.7C135.4,35.7,135.2,35.6,135.1,35.4z"/>
	<path class="st31" d="M186.7,53.2c2.8,0.7,3.3,3.4,4.5,5.3c2,3.2,3.1,6.8,2.5,10.7c-0.2,1.2-0.6,2.4-1.7,3.1
		c-1-0.5-1.1-1.6-1.4-2.4c-0.7-2-1.4-3.9-2.7-5.6c-0.2-0.7-0.4-1.4-0.6-2.1c0.7-0.8,0.3-1.8,0.2-2.7
		C187.4,57.3,186.1,55.4,186.7,53.2z"/>
	<path class="st36" d="M190.3,92.1c0.8,0.6,1.7,1,2.7,1.2c0.2,0.2,0.5,0.4,0.7,0.6c-0.1,4.6-1.8,8.9-3.2,13.2
		c-0.1,0-0.2-0.1-0.3-0.2c-1.2-2.3-2.4-4.6-3.7-6.8c-0.5-0.8-0.9-1.5-0.2-2.4C187.6,95.9,189,94,190.3,92.1z"/>
	<path class="st24" d="M186.7,53.2c-0.7,2.2,0.7,4.2,0.9,6.3c0.1,0.9,0.5,1.9-0.2,2.7c-1.2-0.6-1.2-2.2-2.4-2.8
		c0-0.2-0.1-0.3-0.2-0.3c0-0.2,0-0.4-0.1-0.6c0.2-2.4-1-4.7-1-7c0.3,0,0.6,0,1-0.1C185.3,52,186.7,51.8,186.7,53.2z"/>
	<path class="st28" d="M187.9,64.2c1.4,1.6,2,3.6,2.7,5.6c0.3,0.9,0.4,1.9,1.4,2.4c0,0.1,0,0.3,0,0.4c-2.5,0-4.3-1.3-5.8-3.2
		C186.8,67.7,187.4,66,187.9,64.2z"/>
	<path class="st34" d="M170.6,36.3c-2.2,0-3.5-1.2-4.4-3.9c-1.9,6.2-6,5.8-10.5,4.7c-2.5-0.6-5-1.2-8-2.3c3.2-1.4,6.1-1.1,8.7-1.7
		c1-0.2,2.2-0.2,2.4-1.5c0.2-1.3-0.9-1.8-1.8-2.3c-4.4-2.5-8.8-2.5-13.3-0.3c-0.9-0.5-1.8-1.1-2.7-1.6c5.7-2.6,11.4-1.8,17,0
		c1.8,0.6,3.6,1.3,5.2,2.4c0.5,0.3,1.1,1.2,1.8,0.6c0.4-0.4,0.6-1.3,0.6-1.9c0-1-0.3-2.1-0.5-3.1c1.9-0.3,4.8,1.4,6,3.7
		C170.9,31.5,171.5,34,170.6,36.3z"/>
	<path class="st24" d="M190.2,107c0.1,0.1,0.2,0.1,0.3,0.2c3,5.6,6,11.3,10.2,16.2c3.6,4.1,7.5,3.4,9.8-1.6
		c1.7-3.6,1.8-7.6,2.5-11.5c0.1,4.4-0.5,8.7-1.5,13c-0.5,2.3-1.6,4.4-3.2,6.2c-4.1,1.8-5.5,1.4-8.5-2.6c-4.1-5.4-7.2-11.4-10.5-17.2
		C189.6,108.7,189.9,107.8,190.2,107z"/>
	<path class="st28" d="M169.3,39.6c0.2-0.8,0.4-1.6,1.2-2.1c1.9,0.3,2.9,2.1,4.6,2.7c0.2,1.1-0.1,2-1,2.6
		C172.3,42.1,170.6,41.1,169.3,39.6z"/>
	<path class="st30" d="M88.8,72.7c0.2-0.1,0.4-0.2,0.5-0.3c3.8-0.1,7,1.1,9.9,3.5c1.1,0.9,1.8,2.4,3.2,3c3.9,4.4,7.8,8.7,11.7,13.1
		c0.3,3.4,2.9,5.4,5.1,7.4c7.8,7.2,16.9,11.8,27.6,12.9c-3.1,4.7-6.3,9.3-11.1,12.6c-0.5-0.3-1.1-0.7-1.7-0.8
		c-8.5-2-15.9-6.2-22.7-11.7c-0.6-0.5-1.2-0.7-1.9-0.7c-2.3-3.1-3.3-6.9-4.9-10.4C102,96,99.9,90.5,97,85.4c-0.9-1.6-2-3.1-3.3-4.4
		c-1.6-1.6-3.3-2.3-5.5-1.5C88.4,77.2,88.6,75,88.8,72.7z"/>
	<path class="st36" d="M146.8,112.4c-10.7-1-19.8-5.6-27.6-12.9c-2.1-2-4.7-4-5.1-7.4c3.3,2.6,6.3,5.6,10.5,6.8
		c8,2.1,14.3-1.2,20.1-6.4c2.8-2.4,5.6-4.8,8.5-7.2c2.7,1.7,5.7,0.9,8.7,1c0,0,0.2,0,0.2,0c-0.1,0.3-0.1,0.7-0.2,1
		c-2.2,3.2-4.3,6.4-5.8,10c-2.9,4.8-5.8,9.6-8.7,14.3C147.1,111.9,147,112.2,146.8,112.4z"/>
	<path class="st34" d="M167.3,116.4c-2.9,0.6-5.8,1.3-8.7,1.9c-4.2,0.9-8.5,1.3-12.7,0.1c1.2-1.9,2.3-3.9,3.5-5.8
		c3.4-4.6,5.7-9.7,8.5-14.6c2-2,2.6-5,4.6-6.9c0.4,2.6,0.8,5.2,1.1,7.8C164.3,104.8,164.7,110.8,167.3,116.4z"/>
	<path class="st23" d="M109.5,111.7c0.7,0,1.3,0.3,1.9,0.7c6.8,5.5,14.2,9.7,22.7,11.7c0.6,0.1,1.1,0.5,1.7,0.8
		c-7.1,5-13.7,4.2-19.3-2.5C113.6,119.1,111.3,115.6,109.5,111.7z"/>
	<path class="st32" d="M157.9,98c-2.8,4.9-5.1,10.1-8.5,14.6c-0.6-0.5-1.3-0.9-2.1-0.9c2.9-4.8,5.8-9.6,8.7-14.3
		C156.6,97.6,157.2,97.8,157.9,98z"/>
	<path class="st35" d="M140.9,27.4c0.9,0.5,1.8,1.1,2.7,1.6c-1.1,3.5-1.1,3.5-4.5,2.1c-0.8-0.3-1.7-0.5-2-1.5
		c0.7-1.4,2.2-1.5,3.2-2.3C140.6,27.3,140.8,27.4,140.9,27.4z"/>
	<path class="st36" d="M139.4,42.6c-1.7-0.7-3.5-1.5-5.2-2.2c-5-3.5-10-4.2-15.2-0.3c-2.4,1.8-4.8,3.5-7.6,4.6c-0.1-2.5,1.9-4,3-5.9
		c0.6-0.9,2-1.6,1.2-3.1c6.4-4.3,12.9-3.6,19.4-0.4c0.2,0.2,0.3,0.4,0.5,0.6c0.5,2.2,1.8,3.9,3.9,4.8
		C139.5,41.3,139.5,42,139.4,42.6z"/>
	<path class="st37" d="M167.3,116.4c-2.5-5.6-3-11.6-3.7-17.6c-0.3-2.6-0.7-5.2-1.1-7.8c0-0.5,0.1-1,0.1-1.5
		c1.8-0.6,2.4-2.5,3.7-3.6c3-2.8,4.7-2.9,7.6,0c1.6,1.6,3,3.4,4.4,5.2c1.6,2.5,3.2,4.9,4.7,7.4c1.6,3.8,4.4,7.1,5.8,11.1
		c-2.5,4.2-5.6,7.9-10.1,10C174.2,121.7,170.7,120.7,167.3,116.4z"/>
	<path class="st24" d="M180.4,137.5c0,4-0.7,7.8-3,11.2c-3.2,4.8-8.4,4.8-11.1-0.2c-3.9-7.2-4-14.7,0-22c1.3-2.4,3.3-4.3,6.3-3.8
		c3,0.4,4.7,2.4,5.6,5.2c-1.7,0.5-3.8-0.9-5.1,1.1c-1.3,1.9-1.4,5.7,0.1,7.5c1.7,2.1,3.9,2.1,6.2,1.3
		C179.7,137.7,180.1,137.6,180.4,137.5z"/>
	<path class="st33" d="M188.9,109.6c-1.4-4-4.1-7.2-5.8-11.1c1.1-1,1.7-2,0.5-3.4c-0.7-0.8-1-2-1.5-3c1.2-1.5,2-3.6,4.1-4.2
		c1.5,1.2,3.1,2.4,4.2,4.1c-1.4,1.9-2.7,3.8-4.1,5.6c-0.6,0.9-0.2,1.6,0.2,2.4c1.3,2.3,2.5,4.6,3.7,6.8c-0.3,0.9-0.6,1.8-0.9,2.6
		C189.1,109.6,189,109.6,188.9,109.6z"/>
	<path class="st34" d="M178.8,128.1c1.6-1.3,3.6-1.3,5.4-1.5c1.8-0.2,2.9,0.9,2.4,2.8c-1,3.4-2.8,6.1-6.1,7.7
		c-0.2-0.8,0.2-2.1-1.4-1.7c-1.4,0.3-2.5-0.3-2.7-1.7c-0.2-1.3-0.5-2.9,1.4-3.4C179,129.8,178.9,129,178.8,128.1z M181.9,129.4
		c-0.7,0.5-2.7-0.4-2.2,1.6c0.2,1.1-0.3,3,1.3,3c1.7-0.1,2.1-2,2.4-3.4C183.7,129.6,183,129.2,181.9,129.4z"/>
	<path class="st28" d="M178.8,128.1c0.1,0.9,0.2,1.8-1,2c-2,0.5-1.6,2.1-1.4,3.4c0.2,1.4,1.3,2.1,2.7,1.7c1.7-0.4,1.3,0.9,1.4,1.7
		c0,0.2-0.1,0.4-0.1,0.6c-0.3,0.1-0.7,0.1-1,0.2c-2.3,0.9-4.5,0.8-6.2-1.3c-1.5-1.8-1.4-5.5-0.1-7.5c1.3-2,3.4-0.6,5.1-1.1
		C178.4,128,178.6,128,178.8,128.1z"/>
	<path class="st31" d="M86.7,150.8c-3.1,2.2-5.7,1.9-8.4-0.7c-1.8-1.8-2.8-4-3.5-6.4c-1.3-4.8-1.3-9.7,0-14.5c1-3.5,3.2-6.2,6.6-7.6
		c2.4-0.5,4.3,0.3,6,1.9C93.9,129.5,93.4,145.1,86.7,150.8z"/>
	<path class="st35" d="M102.5,79c-1.4-0.6-2.1-2.1-3.2-3c-2.9-2.4-6.2-3.6-9.9-3.5c1.7-5.6,4.2-10.9,6.8-16c0.8-1.6,1.6-3.3,1.6-5.2
		c1.6-0.5,3.2-1.1,4.7-1.6c0,1.4-0.1,2.8-0.4,4.1c-1.3,5.3-1.9,10.8-1.2,16.2C101.3,73,102,76,102.5,79z"/>
	<path class="st34" d="M102.5,79c-0.5-3-1.2-6-1.5-9c-0.7-5.5-0.1-10.9,1.2-16.2c0.3-1.4,0.4-2.8,0.4-4.1c3-1.7,6.2-2.8,8.9-4.9
		c2.8-1.1,5.3-2.8,7.6-4.6c5.2-3.9,10.2-3.3,15.2,0.3c-2.9,2.6-5.6,5.2-5.4,9.5c-3.5,0.5-5.3,2.9-6.5,5.8
		c-2.4,5.6-2.5,11.5-0.6,17.2c1.2,3.6,3.7,7.4,8.6,7.2c3,4.7,7.2,8,12,10.5c0.9,0.5,2,0.8,2.3,1.9c-5.7,5.2-12.1,8.5-20.1,6.4
		c-4.2-1.1-7.3-4.1-10.5-6.8C110.3,87.7,106.4,83.4,102.5,79z"/>
	<path class="st28" d="M130.3,80.1c-4.9,0.3-7.4-3.6-8.6-7.2c-1.9-5.7-1.8-11.5,0.6-17.2c1.3-2.9,3-5.3,6.5-5.8
		c1.4,0.3,2.8,0.5,3.8,1.6c-0.8,0.7-0.9,1.7-1.2,2.6c-2.3,7.8-0.7,14.9,3.2,21.8C133.9,77.9,132.1,79,130.3,80.1z"/>
	<path class="st34" d="M186.2,88c-2.2,0.6-2.9,2.6-4.1,4.2c-1.2-0.5-1.4-4.3-3.7-1c-1.5-1.7-2.8-3.6-4.4-5.2c-2.9-2.9-4.6-2.8-7.6,0
		c-1.3,1.2-1.9,3-3.7,3.6c-0.3-0.7-0.5-1.5-0.8-2.2c0.1-0.3,0.1-0.7,0.2-1c1.5-1,2.3-2.6,3.3-4c2-2.5,3.7-3.2,6.8-2.2
		c1.1,0.3,1.6-0.1,2.3-0.7c2.5-2.1,3.5-2.1,5.4,0.4C182,82.6,184.5,85,186.2,88z"/>
	<path class="st33" d="M134.7,75.9c-3.9-6.8-5.5-14-3.2-21.8c0.3-0.9,0.4-1.9,1.2-2.6c1.2,0.3,1.6,1.3,2.1,2.2
		C138.6,59.7,138.6,70.7,134.7,75.9z"/>
	<path class="st28" d="M161.8,86.4c-2.9-0.1-5.9,0.6-8.7-1c1.4-2.2,3.5-3.7,5.2-5.5c1.1-1.1,1.8-0.8,2.2,0.6
		C161.2,82.4,161.8,84.3,161.8,86.4z"/>
	<path class="st34" d="M147.2,40.7c1.9,0.7,3.8,1.4,5.7,2.1c-6.3,4.4-6.3,4.4-9.3,2.1C144.9,43.6,146.6,42.6,147.2,40.7z"/>
	<path class="st28" d="M147.2,40.7c-0.6,1.9-2.3,2.9-3.6,4.2c-1.5-0.6-3-1-4.1-2.2c0-0.7,0-1.3,0-2c1.4-0.3,3,0.4,4.1-1
		C144.9,39.5,146,40.4,147.2,40.7z"/>
	<path class="st33" d="M187.9,64.2c-0.5,1.7-1.1,3.5-1.6,5.2c-1.2-1.2-2.2-2.5-2.7-4.2c1.3-1.8-0.4-4.2,1.3-5.9
		c1.2,0.6,1.2,2.2,2.4,2.8C187.5,62.8,187.7,63.5,187.9,64.2z"/>
	<path class="st35" d="M184.9,59.4c-1.7,1.7-0.1,4.1-1.3,5.9c-1.9-3.1-3.2-6.4-2.3-10.1c1.4,0.7,2.1,2,2.9,3.3
		c0.2,0.2,0.3,0.4,0.5,0.6C184.9,59.1,184.9,59.2,184.9,59.4z"/>
	<path class="st34" d="M143.6,39.7c-1.1,1.5-2.7,0.7-4.1,1c-2.1-0.9-3.4-2.5-3.9-4.8C138.4,36.7,141.3,37.7,143.6,39.7z"/>
	<path class="st34" d="M169.3,39.6c1.3,1.5,2.9,2.5,4.8,3.2c-0.7,2.7-1,2.8-3.1,1.3c-0.5-0.4-1-0.7-1.5-1
		C167,41.5,167,41.5,169.3,39.6z"/>
	<path class="st27" d="M184.2,58.4c-0.8-1.3-1.5-2.6-2.9-3.3c-0.7-2.2,0.2-3.4,2.4-3.8c0,2.4,1.2,4.6,1,7
		C184.5,58.4,184.4,58.4,184.2,58.4z"/>
	<path class="st33" d="M184.2,58.4c0.1,0,0.3,0,0.4,0c0,0.2,0,0.4,0.1,0.6C184.6,58.8,184.4,58.6,184.2,58.4z"/>
	<path class="st28" d="M161.9,87.4c0.3,0.7,0.5,1.5,0.8,2.2c0,0.5-0.1,1-0.1,1.5c-2.1,1.9-2.6,4.9-4.6,6.9c-0.6-0.2-1.2-0.4-1.8-0.6
		C157.6,93.8,159.7,90.6,161.9,87.4z"/>
	<path class="st35" d="M178.3,91.1c2.2-3.3,2.5,0.5,3.7,1c0.5,1,0.9,2.1,1.5,3c1.2,1.4,0.6,2.4-0.5,3.4
		C181.5,96.1,179.9,93.6,178.3,91.1z"/>
	<path class="st37" d="M181.9,129.4c1.1-0.2,1.8,0.3,1.5,1.2c-0.4,1.4-0.8,3.3-2.4,3.4c-1.7,0.1-1.1-1.9-1.3-3
		C179.2,129,181.2,129.9,181.9,129.4z"/>
</g>
<g id="Funny" class="st0">
	<circle class="st38" cx="128" cy="128" r="128"/>
	<path class="st39" d="M125.8,230.6c29.5-0.6,54.5-8.9,74.4-29.4c16.7-17.2,24.5-37.8,20.7-62c-1.6-10.2-7.4-14.8-17.8-15.4
		c-8.9-0.5-17.6,0.9-26.2,2.6c-28.8,5.7-57.6,6.1-86.5,0.9c-12.2-2.2-24.4-4.3-36.9-3.4c-11.5,0.9-18.1,6.7-19.7,18
		c-2.6,18.3,2.2,35,13,49.8C66.6,218.8,94.7,229.5,125.8,230.6z M137.8,60.7c-0.1,6.9,2.1,10,6.3,10.1c4.2,0.1,6.7-2.8,6.9-8.2
		c0.1-4.2,1.2-8.1,3.2-11.7c2.6-4.8,6.2-8.7,12-8.8c5.8-0.1,9.5,3.7,12.3,8.4c2.4,4,3.2,8.5,3.6,13.1c0.4,4.8,3,7.5,6.8,7.3
		c3.9-0.2,6.4-3.1,6.2-7.8c-0.3-9.4-3.1-18-9.4-25.1c-10.1-11.5-26.4-12-37.3-1.3C141.4,43.6,138.5,52.4,137.8,60.7z M114,62.3
		c-0.2-8.2-2.7-15.7-7.7-22.3c-5.6-7.3-12.8-11.4-22.2-11c-15.7,0.6-31.2,21.6-27.2,36.9c0.9,3.3,3.1,5,6.4,5c3.3,0,5.6-1.8,6.2-5.1
		c0.4-1.9,0.3-3.9,0.6-5.8c0.7-5.3,2.8-10.1,6.6-13.9c5.4-5.3,12-5.3,17.3,0.1c4.6,4.6,6.4,10.4,6.7,16.8c0.3,5.4,3.1,8.2,7.3,7.9
		C112.1,70.4,114.1,67.5,114,62.3z"/>
	<path class="st40" d="M125.8,230.6c-31.1-1.1-59.2-11.9-79.1-39c-10.8-14.7-15.6-31.4-13-49.8c1.6-11.3,8.2-17.1,19.7-18
		c12.5-0.9,24.8,1.2,36.9,3.4c28.9,5.2,57.7,4.8,86.5-0.9c8.6-1.7,17.3-3.1,26.2-2.6c10.3,0.6,16.1,5.2,17.8,15.4
		c3.8,24.1-3.9,44.8-20.7,62C180.3,221.7,155.3,230,125.8,230.6z"/>
	<path class="st41" d="M137.8,60.7c0.6-8.3,3.6-17.1,10.7-24.1c10.9-10.8,27.2-10.2,37.3,1.3c6.3,7.2,9.1,15.7,9.4,25.1
		c0.2,4.7-2.3,7.6-6.2,7.8c-3.8,0.2-6.4-2.5-6.8-7.3c-0.4-4.6-1.2-9-3.6-13.1c-2.8-4.7-6.5-8.5-12.3-8.4c-5.8,0.1-9.4,4-12,8.8
		c-2,3.6-3,7.5-3.2,11.7c-0.2,5.4-2.7,8.4-6.9,8.2C140,70.7,137.8,67.7,137.8,60.7z"/>
	<path class="st41" d="M114,62.3c0.1,5.3-1.9,8.2-5.9,8.5c-4.2,0.4-7-2.5-7.3-7.9c-0.3-6.4-2.1-12.2-6.7-16.8
		c-5.3-5.4-11.9-5.4-17.3-0.1c-3.9,3.8-5.9,8.5-6.6,13.9c-0.3,1.9-0.2,3.9-0.6,5.8c-0.7,3.3-3,5.1-6.2,5.1c-3.3,0-5.5-1.7-6.4-5
		c-4-15.2,11.5-36.3,27.2-36.9c9.4-0.4,16.7,3.7,22.2,11C111.2,46.5,113.7,54,114,62.3z"/>
</g>
<g id="Love" class="st0">
	<path class="st42" d="M231.2,38.3c23,19.6,29.6,57.7,13.7,83.9c-10.4,17.1-25.4,29.2-39.5,42.4c-21.5,19.9-44.4,38.3-64.7,59.4
		c-4.3,4.4-8.3,9.1-11.4,15.2c-7.9-12.9-18.8-22.5-29.4-32.4c-11.1-10.3-22.4-20.4-33.6-30.5c4.7-1.3,7-6.5,11.9-7.3
		c17.2,15.2,35.1,29.7,49.1,48c1.3,1.7,1.9,2.2,3.5,0.1c13-17.7,30.3-31.3,46.3-46c16.5-15.2,33.9-29.6,49.3-45.9
		c9.4-10,11.7-22.5,11.1-35.6c-0.7-15.1-6.9-27.8-17.4-38.6c0-2.1,1.8-3,2.9-4.4C225.3,43.4,229.2,41.8,231.2,38.3z"/>
	<path class="st43" d="M4.9,96c-2.2-8.3-0.6-16.5,1.5-24.5C14.9,40,43.1,18.9,75.9,20.2c9,0.4,18.1,1.9,26.2,6.7
		c-3.9,2.8-8.3,5-10,9.9c-7.1-1.6-14.2-1.8-21.6-1.1C45,38.1,21.9,62.5,20.8,86c-1.9-0.2-3.3,0.5-5,1.5C11.9,90,9.4,94.3,4.9,96z"/>
	<path class="st44" d="M231.2,38.3c-1.9,3.5-5.9,5.1-8.2,8.2c-1,1.4-2.9,2.3-2.9,4.4c-10.9-9.5-23.4-15.5-37.8-15.7
		c-21.9-0.4-39.1,8.9-51.1,27.5c-0.7,1-0.7,2.6-2.8,2.9c-2.4-5.8-7.2-10.1-10.6-15.4c2.8-1.5,4.5-4.4,7.6-5.3
		c2.5,3.3,4.2,3.6,7.3-0.2C148.9,24,179.2,14.9,204.3,23C214.2,26.2,223.9,30.3,231.2,38.3z"/>
	<path class="st44" d="M78.1,168.9c-5,0.8-7.3,6-11.9,7.3c-13.9-11.6-27.7-23.4-39.9-36.9c4.4-1.7,5.9-7.1,10.7-8.3
		c4.4,4,8.7,8,13.1,12.1C59.4,151.7,68.7,160.3,78.1,168.9z"/>
	<path class="st45" d="M37,131c-4.8,1.2-6.3,6.6-10.7,8.3C13.6,127.6,6.2,113.3,4.9,96c4.5-1.7,6.9-6,10.8-8.5
		c1.7-1.1,3.1-1.7,5-1.5c-2.2,15.4,1.4,29.1,12.3,40.5C34.4,128,35.7,129.5,37,131z"/>
	<path class="st45" d="M125.3,44.8c-3.1,1-4.9,3.9-7.6,5.3c-1.7-1-3.5-1.9-5-3.1c-6.2-4.8-12.9-8.5-20.6-10.2
		c1.8-4.9,6.1-7.2,10-9.9C111.1,31.3,119.5,36.3,125.3,44.8z"/>
	<path class="st46" d="M92,36.9c7.7,1.7,14.4,5.4,20.6,10.2c1.5,1.2,3.3,2.1,5,3.1c3.5,5.2,8.2,9.6,10.6,15.4
		c2.1-0.2,2.2-1.8,2.8-2.9c11.9-18.6,29.2-27.9,51.1-27.5c14.4,0.2,27,6.3,37.8,15.7c10.4,10.8,16.7,23.6,17.4,38.6
		c0.6,13.1-1.7,25.5-11.1,35.6c-15.4,16.4-32.8,30.7-49.3,45.9c-16,14.8-33.3,28.3-46.3,46c-1.5,2.1-2.1,1.6-3.5-0.1
		c-14.1-18.4-31.9-32.9-49.1-48c-9.3-8.6-18.7-17.2-28-25.8c-4.4-4-8.7-8-13.1-12.1c-1.3-1.5-2.6-3-3.9-4.4
		C22.2,115.1,18.5,101.5,20.8,86c1.2-23.6,24.3-48,49.7-50.3C77.9,35.1,84.9,35.3,92,36.9z M57,130c2.5,3.8,6.6,6,9.8,9.1
		c7.9,7.5,16.1,14.7,24.2,22c0.8,0.9,1.4,1.9,2.3,2.6c12.1,10.9,24.1,22,34.3,34.7c2.2,2.8,2.7,0.1,3.4-0.9
		c8.7-10.8,18.9-20.2,29-29.6c18.9-17.6,38.5-34.3,56.5-52.8c2.4-2.4,4.1-5.2,4.7-8.6c3-17.6-0.1-33.3-14-45.7c-0.2-1.3-1-2-2-2.7
		c-9.2-7.3-19.5-10.3-31.4-10.2c-19.5,0.2-33,9.2-42.1,25.9c-0.8,1.4-0.8,3.7-2.7,3.9c-2.2,0.2-1.4-2.7-2.8-3.6
		c-0.2-1.7-1.1-3.1-2.1-4.5c-8.3-12.4-19.6-19.9-34.5-21.8c-17-2.2-31,3.6-42.3,16.1c-8,8.9-11.8,19.7-11.8,31.5
		c0,6.3,0.2,13.3,4.9,18.3C45.6,119.3,51.4,124.6,57,130z"/>
	<path class="st44" d="M207.1,60.8c14,12.4,17.1,28.1,14,45.7c-0.6,3.4-2.3,6.2-4.7,8.6c-18,18.5-37.6,35.2-56.5,52.8
		c-10.1,9.4-20.3,18.8-29,29.6c-0.8,1-1.2,3.7-3.4,0.9c-10.3-12.8-22.2-23.8-34.3-34.7c-0.9-0.8-1.5-1.7-2.3-2.6
		c0-2.1,0.6-3.8,2.3-5.2c3.6-2.9,7-6.1,10.5-9.1c16.7-13.8,33.5-27.5,50.2-41.3c12.7-10.4,25.5-20.6,37.9-31.2
		C197.1,69.9,203.1,66.4,207.1,60.8z"/>
	<path class="st45" d="M207.1,60.8c-4,5.7-10,9.1-15.1,13.5c-12.5,10.6-25.3,20.8-37.9,31.2c-16.7,13.7-33.5,27.5-50.2,41.3
		c-3.6,3-7,6.1-10.5,9.1c-1.7,1.4-2.3,3.1-2.3,5.2c-8.1-7.3-16.4-14.4-24.2-22c-3.2-3.1-7.2-5.3-9.8-9.1c1.4-1.6,2.7-3.4,4.3-4.8
		C79.5,110.1,97.8,95,116.1,80c3-2.4,5.5-6,10-6.1c1.4,0.9,0.6,3.8,2.8,3.6c1.9-0.2,1.9-2.5,2.7-3.9c9.1-16.6,22.6-25.7,42.1-25.9
		c11.9-0.1,22.2,2.9,31.4,10.2C206.1,58.8,206.9,59.5,207.1,60.8z"/>
	<path class="st43" d="M126.1,74c-4.5,0.1-7,3.6-10,6.1c-18.3,15-36.6,30.1-54.8,45.2c-1.6,1.4-2.9,3.2-4.3,4.8
		c-5.6-5.5-11.4-10.7-16.7-16.4c-4.7-5.1-4.9-12.1-4.9-18.3c0.1-11.7,3.8-22.6,11.8-31.5c11.3-12.5,25.3-18.3,42.3-16.1
		c14.9,1.9,26.2,9.4,34.5,21.8C124.9,70.9,125.9,72.2,126.1,74z"/>
</g>
<g id="Informative" class="st0">
	<path class="st47" d="M240.5,121.1c1.6,27-5.1,51.4-21.2,73.6c-16.7,23-38.9,37.5-66,43.4c-42.5,9.3-79-3.2-108.3-35.2
		c-18.9-20.7-27.8-45.7-27.8-73.8c5.1-1.9,10.4-0.8,15.7-1c0.1,14.1,2.5,27.9,8.7,40.6c16.1,33.2,42.7,52.7,79.4,55.8
		c35.7,3.1,64.7-11,86.1-39.9c13.9-18.8,19-40.4,17.9-63.6C230.2,121,235.4,121.1,240.5,121.1z"/>
	<path class="st48" d="M240.5,121.1c-5.2,0-10.4-0.1-15.5-0.1c-0.6-2.4-1.6-4.7-1.9-7.2c-2.7-21.1-12.5-38.9-27.3-53.5
		C174,38.9,147.3,30,116.9,34c-34.9,4.5-59.8,23.5-75.1,55c-6,12.3-8.3,25.5-9,39.1c-5.2,0.2-10.5-0.9-15.7,1
		c0-34.5,13.2-63.3,39.5-85.4C122-11,219.6,22.3,238.5,105.3C239.7,110.5,240.6,115.7,240.5,121.1z"/>
	<path class="st49" d="M32.8,128c0.7-13.6,3-26.8,9-39.1C57.2,57.4,82,38.5,116.9,34c30.4-4,57.1,4.9,78.8,26.4
		c14.8,14.6,24.6,32.4,27.3,53.5c0.3,2.4,1.2,4.8,1.9,7.2c1.1,23.2-4,44.8-17.9,63.6c-21.4,28.9-50.4,42.9-86.1,39.9
		c-36.7-3.1-63.3-22.6-79.4-55.8C35.4,155.9,33,142.2,32.8,128z M182.1,69.7c-1.3-1.3-2.4-2.8-3.9-3.8c-17.9-13.2-37.7-19.1-60-16
		c-23.4,3.3-41.8,14.7-55.1,34c-12.1,17.6-16.5,37.3-12.9,58.4c2.4,14.2,7.9,27.1,17.8,37.8c2.2,4.3,6.1,7,9.6,9.9
		c19.2,15.9,41.4,22.6,65.6,17.5c33-6.9,55.2-26.6,63.2-60.3C213.6,116.8,204.9,91,182.1,69.7z"/>
	<path class="st50" d="M182.1,69.7c22.8,21.3,31.5,47.1,24.3,77.7c-8,33.7-30.2,53.4-63.2,60.3c-24.2,5-46.5-1.7-65.6-17.5
		c-3.6-2.9-7.4-5.7-9.6-9.9c0.3-2.8,2.2-4.7,4.1-6.7c13.2-13.2,26.4-26.4,39.6-39.6c1.4-1.4,3.3-2.5,3.4-4.7c3-0.1,1.9,2.2,1.9,3.6
		c0.1,7.2,0.1,14.3,0.1,21.5c0,6.8,0,6.8-7,6.8c-7.4,0-12.8,5.3-13,12.6c-0.1,2.1,0.1,3.5,2.8,3.5c19.5-0.1,39-0.1,58.5-0.1
		c1.8,0,2.7-0.4,2.8-2.5c0.5-6.6-5.3-13.6-11.7-13.4c-3.5,0.1-4.5-1-4.4-4.5c0.2-13.2,0-26.3,0.2-39.5c0-3.1-0.7-4.7-4.1-4.3
		c-0.3-2.1,1-3.4,2.3-4.7C156.3,95.4,169.2,82.5,182.1,69.7z"/>
	<path class="st51" d="M182.1,69.7c-12.9,12.8-25.8,25.7-38.8,38.5c-1.3,1.3-2.6,2.6-2.3,4.7c-5.8,0.1-11.6,0.2-17.3,0.2
		c-10.7,0-10.8,0-10.6,10.9c0,1.8-1.4,4.5,1.9,5.2c-0.2,2.3-2.1,3.3-3.4,4.7c-13.2,13.2-26.4,26.4-39.6,39.6
		c-1.9,1.9-3.7,3.8-4.1,6.7c-9.9-10.8-15.4-23.7-17.8-37.8c-3.6-21.1,0.8-40.7,12.9-58.4c13.3-19.4,31.7-30.7,55.1-34
		c22.3-3.1,42.1,2.7,60,16C179.6,66.9,180.8,68.4,182.1,69.7z M128.7,105c8.7,0.1,16-6.9,16.2-15.6c0.2-8.8-6.8-16.1-15.5-16.3
		c-9.1-0.2-16.4,6.8-16.5,15.8C113,97.6,120.1,104.9,128.7,105z"/>
	<path class="st52" d="M115,129.2c-3.3-0.7-1.9-3.4-1.9-5.2C112.9,113,113,113,123.7,113c5.8,0,11.6-0.1,17.3-0.2
		c3.3-0.4,4.1,1.2,4.1,4.3c-0.2,13.2,0,26.3-0.2,39.5c-0.1,3.5,0.9,4.5,4.4,4.5c6.4-0.2,12.2,6.8,11.7,13.4c-0.1,2.1-1,2.5-2.8,2.5
		c-19.5,0-39,0-58.5,0.1c-2.7,0-2.9-1.4-2.8-3.5c0.3-7.4,5.7-12.6,13-12.6c7,0,7,0,7-6.8c0-7.2,0-14.3-0.1-21.5
		C116.9,131.4,118,129.1,115,129.2z"/>
	<path class="st52" d="M128.7,105c-8.7-0.1-15.8-7.4-15.7-16.1c0.1-9,7.4-16,16.5-15.8c8.7,0.2,15.7,7.6,15.5,16.3
		C144.8,98,137.5,105.1,128.7,105z"/>
</g>
<g id="Time" class="st0">
	<g class="st4">
		<path class="st53" d="M52.5,252l-18-21.6c-0.4-0.5-0.3-1.2,0.1-1.5l67.5-56.2c0.5-0.4,1.2-0.3,1.5,0.1l18,21.6
			c0.4,0.5,0.3,1.2-0.1,1.5L54,252.2C53.6,252.6,52.9,252.5,52.5,252z"/>
		<path class="st53" d="M203.5,252l18-21.6c0.4-0.5,0.3-1.2-0.1-1.5l-67.5-56.2c-0.5-0.4-1.2-0.3-1.5,0.1l-18,21.6
			c-0.4,0.5-0.3,1.2,0.1,1.5l67.5,56.2C202.4,252.6,203.1,252.5,203.5,252z"/>
	</g>
	<g class="st4">
		<path class="st54" d="M144,83.3l-61.6,55c-0.4,0.4-1,0.3-1.4-0.1L11.9,60.7c-0.4-0.4-0.3-1,0.1-1.4l61.6-55c0.4-0.4,1-0.3,1.4,0.1
			l69.2,77.4C144.5,82.3,144.5,82.9,144,83.3z"/>
		<path class="st54" d="M112,83.3l61.6,55c0.4,0.4,1,0.3,1.4-0.1l69.2-77.4c0.4-0.4,0.3-1-0.1-1.4l-61.6-55c-0.4-0.4-1-0.3-1.4,0.1
			l-69.2,77.4C111.5,82.3,111.5,82.9,112,83.3z"/>
	</g>
	<circle class="st55" cx="128" cy="131" r="95.2"/>
	<circle class="st56" cx="128" cy="131" r="72.7"/>
	<circle class="st57" cx="128" cy="131" r="67.3"/>
	<rect x="124.8" y="72.3" class="st58" width="6.3" height="60.8"/>
	
		<rect x="140.3" y="103.1" transform="matrix(0.5661 0.8244 -0.8244 0.5661 162.3864 -64.2917)" class="st58" width="4" height="37.9"/>
	<circle class="st59" cx="128" cy="131" r="7.8"/>
</g>
<g id="Optimistic" class="st0">
	<path class="st60" d="M256,61.5c0,2.1,0,4.1,0,6.2c0,6.5,0,13,0,19.5c-6.4,0-12.8,0-19.2,0c-1.3,0-2.5-0.1-3.8,0.2
		c-5,0-10,0.4-14.9,1c-6.7,0.8-13.3,2.1-19.9,3.8c-23.2,6.2-43.7,17.3-61.5,33.3c-10.8,9.7-20.1,20.8-27.6,33.2
		c-10.5,17.2-17.3,35.8-20.2,55.7c-0.9,6.3-1.5,12.7-1.6,19.1c-0.2,0.4-0.1,0.9-0.1,1.3c0,7,0,14,0,21.1c-4.7,0-9.5,0-14.2,0
		c-3.8,0-7.7,0-11.5,0c0-8.5,0-17,0-25.6c-0.1,0-0.1,0-0.2,0c0,8.5,0,17,0,25.5c0,0,0,0.1,0,0.1c-0.1,0-0.2,0-0.2,0
		c-8.2,0-16.3,0-24.5,0c-0.4,0-0.8,0-1.2,0c0-7.5,0-15.1,0-22.6c0.3-1.6,0.1-3.2,0.2-4.8c0-1,0.1-2.1,0.2-3.1
		c0.1-3.3,0.5-6.6,0.8-10c0.5-5.6,1.4-11.2,2.4-16.7c2.4-12.6,6-24.8,10.7-36.7c3.6-9.1,7.9-17.9,12.8-26.4
		c6.7-11.6,14.6-22.4,23.5-32.5c6.2-7,12.8-13.5,19.8-19.5c7.4-6.3,15.2-12.1,23.4-17.3c8.2-5.1,16.6-9.7,25.4-13.6
		c8.4-3.7,16.9-6.9,25.7-9.4c7.7-2.2,15.5-4,23.4-5.3c4.6-0.8,9.2-1.3,13.9-1.8c3.7-0.4,7.4-0.7,11.1-0.7c1.7-0.1,3.3,0.1,5-0.2
		c7.4,0,14.8,0,22.2,0c0,4.6,0,9.1,0,13.7c0,4,0,8,0,12c0,0.1,0,0.2,0,0.2c0,0-0.1,0-0.1,0c-8.3,0-16.6,0-25,0c0,0.1,0,0.1,0,0.2
		C239.3,61.5,247.7,61.5,256,61.5z M256,61.5c0,2.1,0,4.1,0,6.2c0,6.5,0,13,0,19.5c-6.4,0-12.8,0-19.2,0c-1.3,0-2.5-0.1-3.8,0.2
		c-5,0-10,0.4-14.9,1c-6.7,0.8-13.3,2.1-19.9,3.8c-23.2,6.2-43.7,17.3-61.5,33.3c-10.8,9.7-20.1,20.8-27.6,33.2
		c-10.5,17.2-17.3,35.8-20.2,55.7c-0.9,6.3-1.5,12.7-1.6,19.1c-0.2,0.4-0.1,0.9-0.1,1.3c0,7,0,14,0,21.1c-4.7,0-9.5,0-14.2,0
		c-3.8,0-7.7,0-11.5,0c0-8.5,0-17,0-25.6c-0.1,0-0.1,0-0.2,0c0,8.5,0,17,0,25.5c0,0,0,0.1,0,0.1c-0.1,0-0.2,0-0.2,0
		c-8.2,0-16.3,0-24.5,0c-0.4,0-0.8,0-1.2,0c0-7.5,0-15.1,0-22.6c0.3-1.6,0.1-3.2,0.2-4.8c0-1,0.1-2.1,0.2-3.1
		c0.1-3.3,0.5-6.6,0.8-10c0.5-5.6,1.4-11.2,2.4-16.7c2.4-12.6,6-24.8,10.7-36.7c3.6-9.1,7.9-17.9,12.8-26.4
		c6.7-11.6,14.6-22.4,23.5-32.5c6.2-7,12.8-13.5,19.8-19.5c7.4-6.3,15.2-12.1,23.4-17.3c8.2-5.1,16.6-9.7,25.4-13.6
		c8.4-3.7,16.9-6.9,25.7-9.4c7.7-2.2,15.5-4,23.4-5.3c4.6-0.8,9.2-1.3,13.9-1.8c3.7-0.4,7.4-0.7,11.1-0.7c1.7-0.1,3.3,0.1,5-0.2
		c7.4,0,14.8,0,22.2,0c0,4.6,0,9.1,0,13.7c0,4,0,8,0,12c0,0.1,0,0.2,0,0.2c0,0-0.1,0-0.1,0c-8.3,0-16.6,0-25,0c0,0.1,0,0.1,0,0.2
		C239.3,61.5,247.7,61.5,256,61.5z M256,61.5c0,2.1,0,4.1,0,6.2c0,6.5,0,13,0,19.5c-6.4,0-12.8,0-19.2,0c-1.3,0-2.5-0.1-3.8,0.2
		c-5,0-10,0.4-14.9,1c-6.7,0.8-13.3,2.1-19.9,3.8c-23.2,6.2-43.7,17.3-61.5,33.3c-10.8,9.7-20.1,20.8-27.6,33.2
		c-10.5,17.2-17.3,35.8-20.2,55.7c-0.9,6.3-1.5,12.7-1.6,19.1c-0.2,0.4-0.1,0.9-0.1,1.3c0,7,0,14,0,21.1c-4.7,0-9.5,0-14.2,0
		c-3.8,0-7.7,0-11.5,0c0-8.5,0-17,0-25.6c-0.1,0-0.1,0-0.2,0c0,8.5,0,17,0,25.5c0,0,0,0.1,0,0.1c-0.1,0-0.2,0-0.2,0
		c-8.2,0-16.3,0-24.5,0c-0.4,0-0.8,0-1.2,0c0-7.5,0-15.1,0-22.6c0.3-1.6,0.1-3.2,0.2-4.8c0-1,0.1-2.1,0.2-3.1
		c0.1-3.3,0.5-6.6,0.8-10c0.5-5.6,1.4-11.2,2.4-16.7c2.4-12.6,6-24.8,10.7-36.7c3.6-9.1,7.9-17.9,12.8-26.4
		c6.7-11.6,14.6-22.4,23.5-32.5c6.2-7,12.8-13.5,19.8-19.5c7.4-6.3,15.2-12.1,23.4-17.3c8.2-5.1,16.6-9.7,25.4-13.6
		c8.4-3.7,16.9-6.9,25.7-9.4c7.7-2.2,15.5-4,23.4-5.3c4.6-0.8,9.2-1.3,13.9-1.8c3.7-0.4,7.4-0.7,11.1-0.7c1.7-0.1,3.3,0.1,5-0.2
		c7.4,0,14.8,0,22.2,0c0,4.6,0,9.1,0,13.7c0,4,0,8,0,12c0,0.1,0,0.2,0,0.2c0,0-0.1,0-0.1,0c-8.3,0-16.6,0-25,0c0,0.1,0,0.1,0,0.2
		C239.3,61.5,247.7,61.5,256,61.5z M61.5,229.4c0.2-1,0.2-2,0-3C61.5,227.3,61.5,228.4,61.5,229.4z"/>
	<path class="st61" d="M35.5,233.4c0,7.5,0,15.1,0,22.6c-0.4,0-0.7,0.1-1.1,0.1c-7.9,0-15.8,0-23.7,0c-1,0-1.2-0.3-1.2-1.3
		c0-6.2,0-12.5,0-18.7c0.1-0.9,0.1-1.8,0-2.8c0-1.4,0.1-2.8,0-4.2c-0.1-1.9,0.1-3.7,0.2-5.6c0.3-4,0.6-8,1-11.9
		c0.9-7.5,2-14.9,3.6-22.3c2.9-13.8,7.1-27.1,12.5-40.1c2.8-6.8,6-13.4,9.5-19.9c7.4-13.8,16.2-26.7,26.2-38.7
		c6.6-7.9,13.7-15.2,21.3-22.1c10.4-9.4,21.5-17.8,33.4-25.2c6.7-4.1,13.5-7.9,20.5-11.3c10.3-5,21-9.2,31.9-12.5
		c8.1-2.5,16.3-4.5,24.6-6.1c4.8-0.9,9.7-1.7,14.6-2.3c3-0.3,5.9-0.7,8.9-0.9c3.5-0.2,7.1-0.5,10.6-0.6c1.5-0.1,3,0,4.5-0.2
		c0.8,0,1.6,0.1,2.4,0c6.5,0,13,0,19.6,0c0.8,0,1.2,0.2,1.2,1.1c0,8,0,16,0,23.9c0,0.3,0,0.6-0.1,1c-7.4,0-14.8,0-22.2,0
		c-1.7,0-3.3-0.2-5,0.2c-3.7,0.1-7.4,0.4-11.1,0.7c-4.6,0.4-9.3,1-13.9,1.8c-7.9,1.3-15.7,3-23.4,5.3c-8.8,2.6-17.4,5.7-25.7,9.4
		c-8.8,3.9-17.3,8.5-25.4,13.6c-8.2,5.2-16.1,11-23.4,17.3c-7,6-13.7,12.5-19.8,19.5c-8.9,10.1-16.7,20.9-23.5,32.5
		c-4.9,8.5-9.2,17.3-12.8,26.4C45,174,41.4,186.2,39,198.8c-1.1,5.5-1.9,11.1-2.4,16.7c-0.3,3.3-0.6,6.6-0.8,10c0,1-0.2,2.1-0.2,3.1
		C35.3,230.2,35.4,231.8,35.5,233.4z"/>
	<path class="st62" d="M87.4,233.6c0-6.4,0.6-12.7,1.6-19.1c2.9-20,9.7-38.5,20.2-55.7c7.6-12.4,16.8-23.5,27.6-33.2
		c17.8-16,38.3-27.1,61.5-33.3c6.5-1.8,13.2-3,19.9-3.8c5-0.6,9.9-1,14.9-1c0.6,0,1.1,0,1.7,0c7.1,0,14.2,0,21.3,0
		c0,4.4,0,8.7,0,13.1c0,4.3,0,8.5,0,12.8c-8.2,0.1-16.3-0.2-24.5,0.2c-3.3,0.1-6.5,0.4-9.8,0.8c-6.3,0.7-12.4,1.9-18.5,3.6
		c-13.2,3.7-25.4,9.4-36.6,17.2c-7.8,5.4-15,11.7-21.4,18.7c-6.2,6.8-11.5,14.2-16.1,22.2c-4.7,8.3-8.4,17.1-11,26.2
		c-1.6,5.6-2.8,11.3-3.7,17.1c-0.6,4.3-1.1,8.6-1.2,12.9c-0.1,7.9,0,15.8,0,23.8c-1.5,0-3,0-4.6,0c-6.7,0-13.4,0-20.2,0
		c-0.4,0-0.8,0-1.2,0c0-3.9,0-7.8,0-11.7C87.4,240.7,87.4,237.2,87.4,233.6z"/>
	<path class="st63" d="M113.3,256c0-7.9-0.1-15.8,0-23.8c0.1-4.3,0.5-8.6,1.2-12.9c0.8-5.8,2-11.5,3.7-17.1
		c2.7-9.2,6.3-17.9,11-26.2c4.5-8,9.9-15.4,16.1-22.2c6.4-7.1,13.5-13.3,21.4-18.7c11.3-7.8,23.5-13.5,36.6-17.2
		c6-1.7,12.2-3,18.5-3.6c3.3-0.3,6.5-0.6,9.8-0.8c8.2-0.3,16.3,0,24.5-0.2c0,0.9,0,1.8,0,2.7c0,7.3,0,14.7,0,22c0,0.4,0,0.8-0.1,1.2
		c-0.1,0-0.2,0-0.3,0c-7.9,0.1-15.8-0.2-23.7,0.2c-3.2,0.1-6.4,0.4-9.5,0.9c-6.5,1-12.8,2.5-18.9,4.8c-6.6,2.4-12.9,5.5-18.9,9.2
		c-7.6,4.8-14.5,10.6-20.5,17.4c-2.7,3-5.2,6.1-7.5,9.4c-3.3,4.7-6.1,9.6-8.5,14.9c-2.2,4.9-4.1,9.9-5.5,15
		c-1.4,5.2-2.4,10.4-2.9,15.8c-0.2,2.8-0.5,5.5-0.5,8.3c0,7,0,14,0,21c-4.8,0-9.5,0-14.3,0C121,256,117.2,256,113.3,256z"/>
	<path class="st64" d="M139.2,235c0-2.8,0.3-5.5,0.5-8.3c0.5-5.4,1.5-10.6,2.9-15.8c1.4-5.2,3.2-10.2,5.5-15
		c2.4-5.2,5.3-10.2,8.5-14.9c2.3-3.3,4.8-6.4,7.5-9.4c6-6.7,12.9-12.5,20.5-17.4c5.9-3.8,12.2-6.8,18.9-9.2
		c6.2-2.2,12.5-3.8,18.9-4.8c3.2-0.5,6.3-0.7,9.5-0.9c7.9-0.4,15.8-0.1,23.7-0.2c0.1,0,0.2,0,0.3,0c0,0,0,0.1,0,0.1
		c0,8.6,0,17.2,0,25.8c-6.7,0-13.4,0-20.1,0c-0.4,0-0.9-0.1-1.3,0.2c-1.1,0-2.2,0.1-3.3,0.2c-6.3,0.4-12.5,1.7-18.5,3.9
		c-12.8,4.6-23.4,12.1-31.9,22.7c-5,6.2-8.8,13-11.5,20.5c-2.5,7-3.9,14.3-4.1,21.7c-0.3,0.4-0.2,0.9-0.2,1.3c0,6.8,0,13.7,0,20.5
		c-2.3,0-4.7,0-7,0c-6.2,0-12.5,0-18.7,0c0-6.6,0-13.3,0-19.9C139.4,235.7,139.4,235.3,139.2,235z"/>
	<path class="st65" d="M165.2,234.2c0.2-7.5,1.6-14.7,4.1-21.7c2.7-7.5,6.5-14.3,11.5-20.5c8.5-10.5,19.1-18.1,31.9-22.7
		c6-2.1,12.1-3.4,18.5-3.9c1.1-0.1,2.2-0.1,3.3-0.2c7.1,0,14.3,0,21.4,0c0,2.5,0,5,0,7.5c0,5.7,0,11.5,0,17.2c0,1-0.3,1.2-1.2,1.2
		c-6.1,0-12.2-0.1-18.3,0c-13.4,0.2-24.7,5.1-33.7,15.1c-6.2,6.8-9.9,14.9-11.2,24c-0.3,2-0.5,4.1-0.4,6.2c0,6.2,0,12.5,0,18.7
		c0,0.6,0,0.9-0.8,0.9c-8.3,0-16.5,0-24.8,0c-0.1,0-0.2,0-0.3,0C165.3,248.7,165.3,241.5,165.2,234.2z"/>
	<path class="st66" d="M61.3,256c0-8.5,0-17,0-25.5c0.1,0,0.1,0,0.2,0c0,8.5,0,17,0,25.6C61.4,256,61.4,256,61.3,256z"/>
	<path class="st66" d="M256,61.5c-8.3,0-16.7,0-25,0c0-0.1,0-0.1,0-0.2c8.3,0,16.6,0,25,0C256,61.4,256,61.4,256,61.5z"/>
	<path class="st67" d="M256,87.4c-7.1,0-14.2,0-21.3,0c-0.6,0-1.1,0-1.7,0c1.2-0.2,2.5-0.2,3.8-0.2c6.4,0,12.8,0,19.2,0
		C256,87.3,256,87.3,256,87.4z"/>
	<path class="st67" d="M87.4,233.6c0,3.6,0,7.1,0,10.7c0,3.9,0,7.8,0,11.7c-0.1,0-0.1,0-0.2,0c0-7,0-14,0-21.1
		C87.2,234.5,87.2,234,87.4,233.6z"/>
	<path class="st68" d="M165.2,234.2c0,7.3,0,14.5,0,21.8c-0.1,0-0.1,0-0.2,0c0-6.8,0-13.7,0-20.5C165.1,235.1,165,234.6,165.2,234.2
		z"/>
	<path class="st68" d="M256,165.3c-7.1,0-14.3,0-21.4,0c0.4-0.3,0.9-0.2,1.3-0.2c6.7,0,13.4,0,20.1,0C256,165.1,256,165.2,256,165.3
		z"/>
	<path class="st69" d="M139.2,235c0.2,0.4,0.2,0.7,0.2,1.1c0,6.6,0,13.3,0,19.9c0,0-0.1,0-0.1,0s-0.1,0-0.1,0
		C139.2,249,139.2,242,139.2,235z"/>
	<path class="st70" d="M9.5,233.4c0,0.9,0.1,1.8,0,2.8C9.3,235.2,9.2,234.3,9.5,233.4z"/>
	<path class="st70" d="M235.4,9.4c-0.8,0.1-1.6,0.1-2.4,0C233.8,9.2,234.6,9.3,235.4,9.4z"/>
	<path class="st66" d="M228.8,35.6c1.7-0.3,3.3-0.2,5-0.2C232.1,35.8,230.4,35.6,228.8,35.6z"/>
	<path class="st66" d="M35.5,233.4c0-1.6-0.2-3.2,0.2-4.8C35.6,230.2,35.8,231.8,35.5,233.4z"/>
	<path class="st66" d="M61.5,229.4c0-1,0-2,0-3C61.7,227.3,61.7,228.4,61.5,229.4z"/>
	<g class="st4">
		<path class="st71" d="M61.3,230.4c0,3.1,0,6.2,0,9.3c0-1.5,0.1-3.1,0.2-4.7c0-1.5,0-3,0-4.6C61.4,230.4,61.4,230.4,61.3,230.4z"/>
		<path class="st71" d="M231,61.4c0.5,0,1.1-0.1,1.6-0.1C232.1,61.3,231.6,61.3,231,61.4C231,61.3,231,61.4,231,61.4z"/>
		<path class="st72" d="M61.3,239.7c0-3.1,0-6.2,0-9.3c0.1,0,0.1,0,0.2,0c0,1.5,0,3,0,4.6C64,186.3,85.2,69.4,231,61.4
			c0,0,0-0.1,0-0.1c0.5,0,1.1,0,1.6,0c7.5-0.4,15.3-0.4,23.4-0.2c0-4,0-8,0-12c0-4.6,0-9.1,0-13.7c-7.4,0-14.8,0-22.2,0
			c-1.7,0.3-3.3,0.1-5,0.2c-3.7,0.1-7.4,0.4-11.1,0.7c-4.6,0.4-9.3,1-13.9,1.8c-7.9,1.3-15.7,3-23.4,5.3c-8.8,2.6-17.4,5.7-25.7,9.4
			c-8.8,3.9-17.3,8.5-25.4,13.6c-8.2,5.2-16.1,11-23.4,17.3c-7,6-13.7,12.5-19.8,19.5c-8.9,10.1-16.7,20.9-23.5,32.5
			c-4.9,8.5-9.2,17.3-12.8,26.4C45,174,41.4,186.2,39,198.8c-1.1,5.5-1.9,11.1-2.4,16.7c-0.3,3.3-0.6,6.6-0.8,10
			c0,1-0.2,2.1-0.2,3.1c-0.1,1.6,0.2,3.2-0.2,4.8c0,7.5,0,15.1,0,22.6c0.4,0,0.8,0,1.2,0c8.2,0,16.3,0,24.5,0c0.1,0,0.2,0,0.2,0
			c0,0,0-0.1,0-0.1c0-1.3,0-2.5,0-3.8C61.2,249.4,61.1,245.2,61.3,239.7z"/>
	</g>
</g>
<path id="_x34_20" class="st73" d="M139.7,200.9c4.4-4.1,8.4-8.5,11.9-13.4c1-1.4,1.5-3.7,4.1-3.3c0.5,0.1,0.7-0.8,1-1.3
	c1.6-3,3.5-5.9,5.7-8.6c0.6-0.7,1.1-1.6,2.3-1c0.8,0.4,1-0.3,1.2-0.8c1.1-2.3,2.7-4.2,4.2-6.2c0.3-0.4,0.7-1.3,1.2-1
	c1.8,1.2,2-0.5,2.6-1.4c0.8-1.2,1.5-2.4,2.4-3.6c0.7-0.9,1.4-2.4,2.9-0.6c0.6,0.7,1-0.2,1.2-0.6c1.5-2.1,3-4.2,4.4-6.3
	c0.7-1,1.3-1.5,2.3-0.4c0.8,0.9,1.3,0.4,1.7-0.4c1.1-2,2.4-3.7,4-5.3c0.9-0.9,1.7-1.4,2.3,0.2c0.6,1.4,1.2,1.1,1.8,0.1
	c1.2-1.8,2.7-3.5,4.2-5.1c1.1-1.1,2-1.5,2.6,0.4c0.6,1.7,1.1,1.8,2.3,0.3c1.7-2.3,4-4.1,6.2-5.9c0.9-0.8,1.8-1,2.4,0.3
	c0.6,1.2,1.1,1,1.9,0.2c1.8-1.8,3.9-3.3,6.1-4.6c0.6-0.4,1.5-0.9,1.8,0c0.8,2.1,1.6,0.8,2.5,0.2c1.4-1.1,2.8-1.9,4.4-2.7
	c0.8-0.3,1.5-0.8,2.4,0c0.8,0.7,1.2-0.3,1.8-0.5c6.8-2.7,13.6-5.4,20.4-8.1c0,0.4,0,0.9,0,1.3c-0.6-0.2-1,0.2-1.3,0.5
	c-3.3,2.6-6.7,5.2-9.5,8.3c-2.6,2.9-4.7,6.3-8.4,8c-0.5,0.2-0.7,0.7-0.2,1.2c1.2,1.2,0.2,1.7-0.7,2.2c-1,0.6-2.2,1.1-3.2,1.7
	c-0.9,0.5-2.3,0.7-1.3,2.4c0.5,0.8-0.4,1.5-1.1,1.9c-1.5,0.9-3,1.7-4.5,2.6c-0.7,0.4-1.6,0.8-0.8,2c0.7,1.1-0.2,1.7-1,2.3
	c-1.4,1-3,1.7-4.6,2.3c-0.8,0.3-1.5,0.6-0.9,1.7c0.7,1.2-0.2,1.8-1.1,2.4c-2.4,1.5-4.9,2.6-7.5,3.7c1.4,2.6,1.1,3.5-1.6,4.8
	c-1.7,0.9-3.6,1.2-5.5,1.8c-0.9,0.3-1.7,0.5-0.7,1.7c1,1.1-0.2,1.7-1,2.1c-2.3,1.4-4.9,2-7.3,3c-1.3,0.5-3.4,0.5-2,3
	c0.5,0.8-0.7,1.5-1.4,1.8c-1.7,0.9-3.7,1.1-5.5,1.6c-2,0.5-4.1,0.8-5.3,2.8c-0.2,0.3-0.7,0.4-1.1,0.6c-10.3,5.4-20.9,10.5-31.8,14.6
	c-1.5,0.6-3.1,1-4.5,2.4c2.2,0,3.9-0.7,5.7-1.2c2.4-0.6,4.7-1.8,7-1.7c3.9,0.2,7.4-1.1,11.1-1.5c0.4,0,1.1-0.2,1.2,0.2
	c0.6,2.2,1.9,0.9,3,0.6c1.5-0.4,3-0.9,4.5-1.3c1-0.3,2.2-0.9,2.9,0.8c0.2,0.6,1,0.3,1.6,0.2c2.2-0.3,4.3-1.7,6.6,0.3
	c0.7,0.6,2.7-0.4,4.1-0.5c1-0.1,2.6-0.9,2.3,1.4c-0.1,0.7,0.6,0.6,1.1,0.6c0.9,0,1.9-0.1,2.8-0.2c1.1-0.1,2.3-0.4,2.8,1.1
	c0.1,0.4,0.6,0.7,1,0.6c4.2-0.4,7.9,1.9,11.7,3c5.5,1.5,11,3.3,16,6.4c0.3,0.2,0.8,0.4,0.8,0.9c-0.7,0.7-1.6,0.5-2.4,0.5
	c-3.5,0-7,0.1-10.5,0.1c-2.7,0-5.3,0.6-7.9,1.1c-4.6,1-8.9,3.6-13.8,2.8c-1.1-0.2-2.1,0-2.5,1.4c-0.2,1-1.1,1.3-2,1.2
	c-1.3-0.1-2.7-0.3-4-0.6c-1.7-0.4-3.3-0.9-4.9,0.3c-0.6,0.5-1.6,0.3-2.3,0c-3.3-1.5-6.9-1.6-10.4-2.1c-5.4-0.7-10.5-2.5-15.7-4.2
	c-3.1-1-6.2-2.2-9.3-3.2c-0.9-0.3-1.8-0.6-2.7-0.8c-6-1.6-7.4-0.5-7.7,5.7c-0.4,10.6-1.4,21.1-3.3,31.5c-0.1,0.6-0.2,1.1-0.4,1.7
	c-0.1,0.3-0.5,0.6-0.8,0.6c-0.5,0.1-0.7-0.4-0.8-0.8c-0.2-0.9,0-1.7,0.1-2.5c1.5-10,2.7-20,2.6-30.1c0-1.5,0.4-3.4-0.9-4.2
	c-1.3-0.7-2.6,0.8-3.8,1.5c-4,2.4-8.1,4.6-12.2,6.7c-1,0.5-1.9,1-3,0.1c-0.7-0.6-1.4-0.2-2,0.1c-1.5,0.7-3,1.4-4.4,2.1
	c-1.5,0.8-3,1.4-4.9,0.9c-1.4-0.4-2.6,0.6-3.8,1.1c-2.2,0.9-4.1,2.4-6.9,1.3c-1.3-0.5-2.6,0.9-3.9,1.5c-1.3,0.6-2.6,1.5-3.5-0.5
	c-0.4-0.8-1.1-0.3-1.7,0c-2.6,1.3-5.4,1.8-8.2,2.2c-3.9,0.5-7.5,2.3-11.2,3.5c-1.7,0.6-4,2.4-4.9,1.1c-0.7-1.1,2.2-2.5,3.6-3.7
	c2.8-2.3,5.7-4.6,8.6-6.8c1.3-1,2.5-2,3.1-3.7c0.4-1.1,1.7-1.4,2.7-2c1-0.6,2.3-0.8,2-2.5c-0.1-0.6,0.7-1,1.3-1.3
	c1.3-0.7,2.7-1.2,4.2-1.6c1.1-0.3,2.3-0.2,1.8-2.1c-0.2-0.9,0.9-1,1.5-1.2c1.8-0.5,3.6-0.7,5.5-0.7c1,0,1.9,0,2.1-1.3
	c0.2-0.8,0.9-0.9,1.5-1c2.7-0.4,5.8,0.6,8-0.2c2.6-1,5-1,7.6-1.1c2.8-0.1,5.5,0.4,8.3,0.1c-0.3-0.9-1.1-0.8-1.6-1
	c-6.8-2.4-13.7-4.5-20.6-6.5c-1.2-0.4-2.4-0.7-3.2-1.9c-0.6-0.9-1.8-1.1-2.9-1.2c-2.7-0.4-5.4-0.8-8-1.3c-1.3-0.2-2.5-0.7-2.7-2.3
	c-0.2-1-1-1.3-1.9-1.5c-2-0.6-4-1.1-6-1.7c-1.2-0.4-2.4-1-2.4-2.6c0-1.1-0.9-1.2-1.7-1.4c-1.9-0.5-3.8-0.7-5.5-1.7
	c-1.3-0.7-2.8-1.5-1.8-3.4c0.5-1-0.3-1-0.9-1.2c-1.7-0.4-3.3-0.7-5-1.2c-1-0.2-1.9-0.7-2.5-1.5c-0.8-1.1,0.1-1.6,0.6-2.4
	c0.6-1-0.5-1-1-1.1c-2.5-0.8-4.8-1.8-7-3.1c-1-0.6-2.8-1.1-1.4-3c0.5-0.6-0.3-0.8-0.7-1c-1.6-0.8-3.3-1.5-4.8-2.3
	c-1-0.5-2-1.4-1.5-2.6c0.6-1.5-0.3-1.7-1.2-2.1c-1.7-0.7-3.5-1.4-4.8-2.8c-0.4-0.4-1.3-1-0.7-1.6c1.7-1.7,0-2.1-0.9-2.7
	c-1-0.7-2.1-1.3-3.1-1.9c-0.5-0.3-1.2-0.7-1.2-1.1c-0.2-2.7-2.6-3.4-4.3-4.6c-1.9-1.3-2.5-3.6-4.3-5c-3.2-2.5-6.6-4.7-10.1-6.8
	c-1-0.6-2.2-1.1-3-2.2c0.7-0.6,1.5-0.3,2.2-0.1c1.5,0.5,3,0.9,4.5,1.5c6.2,2.8,12.8,4.3,18.9,7.3c0.3,0.1,0.6,0.4,0.8,0.3
	c2.9-1.9,4.2,1.1,6.2,2c0.9,0.4,1.7,1.8,2.6,0c0.4-0.7,1-0.2,1.5,0.2c1.4,1.1,2.7,2.3,4.1,3.4c0.4,0.4,1,1.2,1.5,0.3
	c0.8-1.6,1.7-0.9,2.5-0.1c1.6,1.4,3.1,2.7,4.6,4.2c0.9,0.9,1.6,1.3,2-0.3c0.5-1.8,1.4-1.4,2.4-0.4c1.9,1.9,3.8,3.8,5.8,5.7
	c0.5,0.5,0.8,1.2,1.7,1.4c0.2-0.4,0.4-0.7,0.6-1.1c0.5-1.2,1.2-1.2,2.1-0.3c2.3,2.2,4.3,4.5,6.2,7c2-2.3,2-2.3,4.1-0.1
	c1.3,1.3,2.6,2.7,3.8,4.1c0.6,0.6,1,1.1,1.6,0.1c0.8-1.3,1.6-0.7,2.4,0.1c1.8,1.9,3.5,3.9,5,6.1c0.6,0.8,1,1.4,1.8,0.1
	c0.7-1.3,1.4-0.5,2,0.2c1.5,2,3.1,4,4.5,6c0.5,0.7,0.9,1.5,1.9,0.4c0.9-0.9,1.4,0.2,1.8,0.7c2,2.4,4,4.9,5.7,7.5
	c0.4,0.6,0.7,1.6,1.7,0.6c0.8-0.8,1.3,0,1.8,0.5c1.3,1.5,2.6,3,3.9,4.5c3,3.6,6.4,6.9,10.1,9.9c0.4,0.3,0.8,0.8,1.6,0.7
	c-1.2-3-2.9-5.5-5-7.9c-2.9-3.4-6.2-6.5-9.6-9.5c-1.7-1.6-3.3-3.3-4.5-5.4c-1.1-1.9-3-3.1-4.6-4.4c-1.4-1.1-2.9-2.1-3.9-3.6
	c-0.4-0.6-1.2-1.2-0.5-2.3c0.5-0.8-0.4-1-0.9-1.4c-2.2-1.8-4.5-3.5-6.7-5.4c-0.9-0.8-2-1.7-1-3.3c0.6-0.9-0.5-1.2-1-1.5
	c-2.1-1.5-4.3-2.9-6.1-4.7c-0.8-0.8-1.7-1.5,0-2.4c1.2-0.7,0.1-1.4-0.5-1.7c-2.1-1.5-4.2-3-5.9-4.9c-1-1-1.8-2,0.2-2.9
	c1.2-0.5,0.3-1.2-0.2-1.6c-1.6-1.4-3.5-2.5-4.9-4.2c-0.9-1-1.6-1.9,0.4-2.7c1.4-0.5,0.5-1.2-0.2-1.6c-2.2-1.4-4.1-3-6-4.8
	c-1-1-1.4-1.9,0.1-2.7c1.1-0.6,0.8-1.1-0.1-1.7c-1.9-1.3-3.7-2.7-5.4-4.3c-1.1-1.1-1.2-1.9,0.5-2.4c2.1-0.5,1.4-1.3,0.3-2.3
	c-2-2-4-4.1-6-6.2c-1.1-1.2-1.3-2.3,0.7-2.7c1.4-0.3,1.1-0.9,0.3-1.7c-1.5-1.5-2.9-2.9-4.3-4.4c-0.9-1-1.3-2,0.5-2.5
	c1.3-0.4,0.7-1.1,0.2-1.8c-1.1-1.6-2.3-3.1-3.4-4.6c-0.6-0.9-1.1-1.8,0.4-2.4c1.2-0.5,0.7-1.2,0.1-1.8c-1.2-1.2-2.2-2.4-3-3.9
	c-0.4-0.8-0.6-1.6,0.5-1.9c1.3-0.4,1-0.9,0.4-1.6c-1-1.2-1.8-2.4-2.4-3.8c-0.5-1.1-1.3-2.3,0.3-3.4c0.7-0.5,0-1.3-0.2-1.9
	c-0.7-1.7-2.1-3.5-1.6-5.2c0.5-1.7,0-3-0.4-4.5c-1.3-4.9-3.5-9.5-5.6-14.1c-0.5-1.2-1.2-2.2-1.4-3.8c1.1,0.5,1.6,1.4,2.1,2.2
	c4.3,6.5,9.3,12.7,13.3,19.4c0.2,0.4,0.4,0.9,0.8,1c3.2,1.2,3.8,4.2,4.9,6.9c0.4,0.9,0.6,1.7,1.7,0.6c0.9-0.9,1.3,0,1.6,0.6
	c0.7,1.6,1.3,3.2,1.9,4.8c0.4,1,0.8,1.9,2.2,1.3c1-0.5,1.4,0.3,1.8,1c0.8,1.3,1.3,2.7,1.6,4.2c0.2,1,0.5,1.8,1.6,0.8
	c0.9-0.8,1.5-0.4,2,0.5c1.2,2.4,2.1,4.8,2.7,7.4c0.2,1.1,0.4,2.1,1.8,0.9c1.2-1,1.8-0.2,2.1,0.9c0.8,2.3,1.1,4.7,1.5,7.1
	c3-1.3,3.3-1.2,4,2c0.2,0.7,0.3,1.4,0.5,2.1c0.3,0.9,0.8,1.5,1.7,0.8c1.3-1,1.7,0,2.1,1c0.9,2.4,1.7,4.8,2.3,7.4
	c0.3,1.3,0.8,1.8,2,0.8c1.2-1,1.7-0.5,2.1,0.8c0.6,2.1,1,4.3,1.2,6.5c0.1,1,0.3,1.8,1.5,0.8c1.1-1,1.5,0,1.8,0.8c0.6,2,1,4,1.5,6
	c0.2,1,0.1,2.3,1.9,1.4c0.8-0.4,1,0.6,1.2,1.2c1.1,3,2,6.1,2.5,9.3c0.2,1.3,0.2,2.7,2.1,1.3c0.9-0.7,1.2,0,1.5,0.8
	c1.2,3.8,2.6,7.6,3.3,11.5c0.2,1.3,0.3,2.6,2.1,1.1c0.9-0.8,1.2,0,1.4,0.8c0.8,3.3,1.6,6.7,2.4,10c0.2,1,0.3,1.9,1.6,2.1
	c1,0.2,1.1,1.4,1.3,2.3c1.7,6,3.2,12,5.6,17.8c1,2.3,1.9,4.7,3.4,6.8c0.2-3-0.2-5.9-0.9-8.8c-0.8-3-1.6-6.1-2.4-9.1
	c-0.4-1.6-1.1-3.3,0-5c0.4-0.6-0.2-1.2-0.4-1.8c-1-2.8-2-5.5-3-8.3c-0.3-0.8-0.6-1.6,0.8-1.9c1.2-0.2,0.6-1.1,0.3-1.7
	c-1.1-2.9-2.4-5.7-3.2-8.6c-0.3-1-0.6-2.1,1-2.5c1.3-0.3,0.5-1.3,0.3-1.9c-1.1-2.5-2-5-2.7-7.7c-0.4-1.4-0.6-2.6,1.4-2.8
	c1.4-0.2,0.8-1.1,0.5-1.8c-0.9-2.6-1.8-5.1-2.8-7.7c-0.5-1.3-0.6-2.4,1.4-2.4c1.2,0,1.1-0.7,0.8-1.6c-1-2.3-1.7-4.7-2.4-7.1
	c-0.3-1-0.5-2,1.1-2.1c1.3-0.1,1-0.9,0.7-1.7c-0.8-2.4-1.5-4.8-2.3-7.1c-0.4-1.3-0.4-2.3,1.4-1.9c1.8,0.3,2-0.4,1.4-1.9
	c-1.1-2.7-1.8-5.4-2.1-8.3c-0.2-1.4,0.1-2.1,1.7-1.7c1.5,0.4,1.3-0.5,0.9-1.4c-0.7-1.7-1.4-3.4-1.6-5.3c-0.1-1-0.1-2,1.4-1.8
	c1.3,0.1,1.2-0.5,0.9-1.4c-0.4-1.1-0.7-2.2-1-3.3c-0.4-1.5-0.5-2.9,1.7-3.1c1.1-0.1,0.9-0.9,0.7-1.6c-0.5-1.7-0.8-3.5-1-5.3
	c-0.1-1.3,0.2-2.2,1.8-2.1c1.3,0.1,1.5-0.6,1.4-1.8c-0.3-2.4-0.4-4.8-0.6-7.3c-0.1-1.2,0.2-1.8,1.5-1.5c1.6,0.4,1.6-0.4,1.3-1.7
	c-0.3-1.3-0.5-2.7-0.2-4c0.1-0.5,0.2-1.2,0.5-1.3c2.4-0.7,1.7-2.6,1.8-4.2c0.1-1.2,0.1-2.4,1.2-3.3c0.6-0.4,0.4-1.2,0.4-1.8
	c0.1-1.3-0.6-2.8,1.5-3.2c0.2,0,0.3-0.7,0.4-1.2c1.8-8.7,2.7-17.5,4-26.2c0.1-0.8,0.1-1.7,0.8-2.6c0.6,2.2,0.6,4.2,0.6,6.1
	c0,5.4,0.3,10.8,0.9,16.2c0.3,2.5,1.5,4.9,1,7.6c0,0.2,0,0.5,0.1,0.6c2.4,1.5,1.2,3.8,1.4,5.7c0.1,1.1-0.1,2.2,1.2,2.7
	c0.6,0.2,0.6,0.9,0.6,1.5c-0.1,1.6-0.1,3.1-0.2,4.7c0,0.5-0.4,1.4,0.5,1.3c2.1-0.2,1.5,1.2,1.5,2.2c0,2.1-0.2,4.1-0.7,6.2
	c-0.2,1-0.3,1.8,1.1,1.6c1.5-0.2,1.7,0.6,1.6,1.8c-0.1,2.2-0.7,4.4-1.3,6.5c-0.4,1.3-0.1,1.9,1.2,1.4c1.3-0.4,1.5,0.3,1.5,1.3
	c0,2.4-0.5,4.8-1.3,7.1c-0.4,1.1-0.2,1.7,1.1,1.4c1.9-0.4,2.1,0.7,1.7,2.1c-0.6,2-1.3,3.9-1.9,5.9c-0.2,0.7-0.5,1.5,0.8,1.3
	c1.7-0.3,1.7,0.8,1.6,2c-0.4,2.8-1.3,5.4-2.6,7.9c-0.7,1.4-1.7,2.9,1.3,2.2c1.1-0.2,0.9,0.7,0.8,1.3c-0.2,2.1-0.8,4-1.7,6
	c-0.5,1-0.9,2.1-1.3,3.2c-0.2,0.3,0,0.4,0.3,0.3c2.5-0.4,3,0.1,2.3,2.5c-0.7,2.3-1.8,4.5-2.7,6.8c-0.4,0.9-0.8,1.7,0.8,1.6
	c1.5-0.1,1.3,1,1.2,1.9c-0.4,2.6-1.5,5-2.5,7.5c-0.4,1-1.1,2,0.7,2.4c1,0.3,0.7,1.3,0.5,2c-0.7,2.3-1.8,4.5-2.8,6.7
	c-0.3,0.8-0.9,1.5,0.6,1.9c1.1,0.3,0.6,1.5,0.4,2.3c-0.6,1.8-1.4,3.6-2.2,5.4c-0.4,1-1.4,2.2,0.8,2.2c0.6,0,0.4,1.1,1.2,1
	c0.4-0.6,0.3-1.2,0.4-1.8c0.2-1.1-0.3-2.9,2.1-1.7c1.1,0.6,1.1-0.7,1.2-1.4c0.3-2.9,0.5-5.8,0.8-8.7c0.1-0.8,0.1-1.8,1.4-1.2
	c1.4,0.6,1.4-0.3,1.5-1.2c0.2-2.4,0.4-4.8,0.6-7.3c0.1-1.1,0.4-2,1.9-1.7c1.3,0.3,1.4-0.8,1.5-1.6c0.4-2.3,0.6-4.5,0.9-6.8
	c0.2-1.3,0.5-2.4,2.1-1.4c1.1,0.7,1.3-0.1,1.4-0.9c0.3-2.7,0.4-5.4,1-8.1c0.3-1.5,0.8-2,2.2-0.8c1.3,1.2,1.7,0.5,1.9-0.9
	c0.3-2.5,0.6-5,1.4-7.4c0.3-0.9,0.5-2,1.9-1.3c1.2,0.7,1.5-0.1,1.6-1.1c0.2-1.7,0.4-3.4,0.9-5c0.3-0.9,0.5-1.9,1.9-1
	c1.2,0.8,1.6-0.1,1.7-1.2c0.2-1.8,0.5-3.7,0.9-5.5c0.2-1,0.6-1.9,1.8-1c1.3,0.9,1.6,0.2,1.7-1c0.2-2.1,0.5-4.2,1.2-6.3
	c0.4-1.2,0.9-2,2.3-1.1c1.3,0.8,1.6,0.1,1.7-1c0.1-1.5,0.5-3,1.2-4.3c0.4-0.9,0.9-1.9,2.2-1.2c0.8,0.4,1-0.2,1.1-0.8
	c0.2-1,0.3-2,0.6-2.9c0.3-1.1,0.5-2.6,2.3-1.6c0.8,0.4,0.9-0.4,1-0.9c0.3-1.1,0.6-2.2,1-3.3c0.2-0.5,0.5-1.2,0.8-1.2
	c2.4,0,2.2-2,2.9-3.4c0.2-0.4,0.5-1.1,0.8-1.2c2.1-0.4,2.4-2.2,3.2-3.6c2.7-4.6,5.7-9,8-13.9c0.6-1.3,1.5-2.6,2.8-3.9
	c0.1,1.7-0.4,2.9-0.8,4c-1.8,5-3.5,10-4.6,15.1c-0.4,1.8-1,3.5-0.4,5.5c0.3,0.9-0.2,1.8-0.6,2.7c-0.5,1.2-1.6,2.3,0,3.5
	c0.4,0.3,0,1.1-0.2,1.6c-0.5,1.3-1.1,2.6-1.7,3.9c-0.2,0.6-0.7,1.3,0.4,1.5c1.6,0.2,1.3,1.2,1.1,2.2c-0.5,2.2-1.7,4.2-2.7,6.3
	c-0.5,0.9-0.9,1.6,0.8,1.8c1.5,0.2,1.1,1.5,0.8,2.4c-0.8,2.5-2.2,4.8-3.7,7c-0.9,1.3-1.4,2.3,0.8,2.5c1.7,0.2,1.2,1.3,0.7,2.2
	c-1.1,2.1-2.8,3.6-4.4,5.3c-0.9,1-1.6,1.8,0.4,2.3c1.3,0.3,1,1.1,0.5,1.9c-1.2,2-2.9,3.7-4.5,5.4c-0.7,0.8-1.7,1.5,0.1,2.3
	c1.2,0.5,0.6,1.5,0,2.1c-1.2,1.5-2.6,2.8-3.9,4.3c-0.3,0.3-1.2,0.8-0.3,1.3c1.7,0.9,0.7,1.9,0.1,2.8c-1.1,1.8-2.9,3-4.4,4.3
	c2.2,2,2.1,2.8,0,4.8c-0.9,0.9-1.9,1.7-2.8,2.6c-0.7,0.7-1.5,1.2-0.8,2.5c0.5,0.9-0.3,1.6-0.9,2.2c-1.7,1.8-3.5,3.5-5.3,5.3
	c-0.6,0.7-1.6,1.2-0.4,2.4c0.7,0.7-0.1,1.6-0.7,2.2c-1.6,1.7-3.4,3.3-5,5c-0.6,0.7-1.7,1.2-0.5,2.4c0.7,0.7-0.2,1.5-0.6,2.1
	c-1.7,2.2-3.8,4.1-5.7,6.1c-0.6,0.6-1.9,1.2-0.5,2.3c0.3,0.2-0.1,0.6-0.2,1c-0.4,1-1,1.7-1.7,2.4c-8.2,7.3-14,16.7-20.4,25.5
	c-0.3,0.4-0.5,0.9-0.7,1.3c-0.2,0.3-0.4,0.5-0.5,0.8c-0.1,0.3-0.1,0.6,0.3,0.3C139.3,201.3,139.5,201.1,139.7,200.9z M143.9,159.2
	c-1.3,1.7-2,3.6-2.6,5.5c-0.2,0.5,0.2,1.3,0.3,1.2c0.6-1,2.3-0.5,2.5-1.9C144.4,162.4,144.6,160.8,143.9,159.2z M140.5,174.1
	c-1.3,1.7-1.9,3.3-2.3,4.9c-0.1,0.3,0,0.8,0.4,0.9c0.4,0.1,0.6-0.2,0.8-0.5C140.1,177.9,140.6,176.3,140.5,174.1z"/>
<g id="Useful" class="st0">
	<path class="st74" d="M257,90c-1.5,1.1-1.4,2.9-1.9,4.4c-6.3,20.7-24.6,34.5-46.2,34.6c-9.5,0.1-19,0.2-28.5-0.1
		c-4.8-0.1-8.3,1.5-11.5,4.8c-5.7,5.8-11.5,11.6-17.3,17.3c-4.2-2.1-6.9-5.8-9.8-9.2c5.6-5.7,11.4-11.2,16.8-17.1
		c3.8-4.2,8-5.8,13.6-5.7c14.8,0.2,29.7,0.1,44.5,0c15.9-0.1,29.9-14.1,30.2-30c0.1-6.3,0-12.7,0.1-19c0-9.9,0-9.8-10-10
		c-3.7-0.1-5.8,0.7-7.5,4.5c-4.8,10.5-18.3,16.2-29.6,13.3c-9.2-2.3-17.1-12.2-18.7-23.1c-1.2-8,4.3-19.8,12.2-23.6
		c5-2.4,6.4-5.6,5.8-10.5c-0.2-1.5-0.2-3,0-4.5c0.4-3.4-1.2-4.2-4.4-4.2c-7,0.2-14,0-21,0C154,12.1,140,26.3,140,46.2
		c0,14.7-0.1,29.3,0.1,44c0,3.6-1.1,6.4-3.6,8.9c-6.3,6.2-12.4,12.5-18.6,18.8c-3.8-3.7-8.3-6.8-10.9-11.6
		c6.1-6.1,12.2-12.3,18.4-18.4c2.6-2.6,3.8-5.6,3.8-9.4c-0.1-9.2,0-18.3,0-27.5c0-23.8,12.8-41.2,35.5-48.4c1.2-0.4,2.8-0.2,3.4-1.6
		c13.7,0,27.3,0,41,0c0,11.8-0.1,23.6,0.1,35.4c0,3.2-0.4,4.6-4.2,4.7c-7,0.2-12,5.7-11.8,12.2c0.2,6.1,5.5,11.4,11.6,11.6
		c6.4,0.2,12.1-4.8,12.2-11.8c0.1-3.8,1.5-4.2,4.7-4.2c11.8,0.2,23.6,0.1,35.4,0.1C257,62.7,257,76.3,257,90z"/>
	<path class="st75" d="M106.9,106.3c2.7,4.8,7.1,7.9,10.9,11.6c7.8,8.2,15.6,16.3,24.1,23.9c2.9,3.5,5.6,7.1,9.8,9.2
		c2.4,2.5,4.7,5.2,7.2,7.6c2,1.8,1.7,3-0.1,4.8c-26.4,26.3-52.4,53.1-79.2,79c-25.9,25-66.2,14.1-75.8-20.3
		c-4.6-16.2-0.5-31,11.1-42.9c26.3-26.9,53.1-53.3,79.6-80c2.1-2.2,3.4-1.7,5.2,0.2C101.9,101.9,104.5,104.1,106.9,106.3z M48.6,242
		c7.1-0.4,14.6-2.7,20.6-8.6c22.8-22.7,45.5-45.5,68.3-68.2c2.3-2.3,2-3.4-0.1-5.5c-13-12.9-26-25.8-38.9-38.9
		c-2.2-2.2-3.4-2.6-5.8-0.2c-22.5,22.7-45.4,45.1-67.7,68c-9.5,9.7-11.6,21.6-6.1,34.4C23.6,234.3,35.1,242,48.6,242z"/>
	<path class="st76" d="M141.9,141.9c-8.4-7.6-16.3-15.7-24.1-23.9c6.2-6.3,12.3-12.6,18.6-18.8c2.5-2.5,3.7-5.3,3.6-8.9
		c-0.1-14.7-0.1-29.3-0.1-44c0-19.9,14-34.1,33.8-34.2c7-0.1,14,0.1,21,0c3.1-0.1,4.8,0.7,4.4,4.2c-0.2,1.5-0.2,3,0,4.5
		c0.7,5-0.7,8.1-5.8,10.5c-7.9,3.8-13.3,15.5-12.2,23.6c1.6,11,9.5,20.8,18.7,23.1c11.4,2.9,24.8-2.9,29.6-13.3
		c1.7-3.8,3.8-4.6,7.5-4.5c10,0.2,10,0.1,10,10c0,6.3,0,12.7-0.1,19c-0.2,15.9-14.3,29.9-30.2,30c-14.8,0.1-29.7,0.2-44.5,0
		c-5.6-0.1-9.9,1.6-13.6,5.7C153.3,130.6,147.5,136.2,141.9,141.9z"/>
	<path class="st77" d="M48.6,242c-13.5,0-25-7.7-29.7-18.9c-5.5-12.8-3.4-24.7,6.1-34.4c22.3-22.9,45.2-45.3,67.7-68
		c2.4-2.5,3.7-2,5.8,0.2c12.9,13.1,25.8,26,38.9,38.9c2.1,2.1,2.4,3.2,0.1,5.5c-22.8,22.6-45.5,45.4-68.3,68.2
		C63.2,239.3,55.7,241.6,48.6,242z M32.9,209.3c0.4,6.8,4,11.8,10.2,14.5c6.5,2.8,12.5,0.9,17.3-3.9c18.1-17.9,36-36,54.1-53.9
		c2.6-2.6,2.8-4.3,0.1-6.9c-5.3-5-10.5-10.2-15.5-15.5c-2.7-2.9-4.5-2.8-7.3,0c-18,18.2-36.2,36.3-54.3,54.4
		C34.3,201.1,33.1,204.9,32.9,209.3z"/>
	<path class="st78" d="M32.9,209.3c0.2-4.5,1.4-8.2,4.6-11.4c18.2-18.1,36.3-36.2,54.3-54.4c2.8-2.8,4.6-2.9,7.3,0
		c5,5.4,10.2,10.5,15.5,15.5c2.8,2.6,2.5,4.4-0.1,6.9c-18.1,17.9-36,36-54.1,53.9c-4.8,4.8-10.8,6.7-17.3,3.9
		C36.9,221.2,33.3,216.2,32.9,209.3z"/>
</g>
<g id="Winner" class="st0">
	<path class="st40" d="M209,1c15,0,30,0.1,45-0.1c2.5,0,3.1,0.6,3.1,3.1c-0.1,83.3-0.1,166.7,0,250c0,2.5-0.6,3.1-3.1,3.1
		c-83.3-0.1-166.7-0.1-250,0c-2.5,0-3.1-0.6-3.1-3.1C1,170.7,1,87.3,0.9,4c0-2.5,0.6-3.1,3.1-3.1C19,1.1,34,1,49,1
		c0,11.3-0.1,22.6,0.2,33.9c0.3,14.7,4.4,28.4,12.3,40.9c5.8,9.1,13.4,16.4,21.7,23.1c-24.4,4.4-48.8,8.7-74,13.3
		c2,2.2,3.3,3.5,4.5,4.8c16.5,17.2,33,34.3,49.6,51.4c1.8,1.9,3,3.7,2.6,6.5c-2.2,14.8-4.3,29.6-6.4,44.4c-1.6,11-3.1,22-4.7,33.6
		c2.1-0.9,3.6-1.5,5.1-2.2c21.8-10.6,43.6-21.1,65.3-31.8c2.4-1.2,4.4-1.6,6.9-0.3c18.4,9.2,36.9,18.3,55.4,27.4
		c5,2.4,10,4.6,15.6,7.1c-1.3-9.4-2.4-18-3.6-26.6c-1.4-10.1-2.9-20.2-4.4-30.3c-0.8-5.4-1.4-10.8-2.7-16.1c-1.1-4.4-0.9-9,3.5-13
		c10.1-9.4,19.4-19.7,29-29.7c7.9-8.2,15.8-16.5,24.1-25.2c-25.2-4.5-49.7-8.9-74.1-13.2c0.6-0.6,1.1-1.2,1.8-1.7
		c18-13.8,28.8-31.8,31.6-54.4C210,29,208.6,15,209,1z"/>
	<path class="st79" d="M81,1c32,0,64,0,96,0c0,10.3,0.2,20.6,0,31c-0.3,17.4-7.1,31.5-22,41.2c-9.5-15.2-16.5-31.8-26.2-47.7
		c-2.9,5.4-5.3,9.9-7.8,14.4c-6,11.1-12,22.1-18,33.2c-14.7-9.6-21.5-23.4-21.9-40.6C80.9,22,81,11.5,81,1z"/>
	<path class="st79" d="M209,1c-0.4,14,1,28-0.8,41.9c-2.8,22.5-13.6,40.5-31.6,54.4c-0.6,0.5-1.2,1.1-1.8,1.7
		c-8.2,0.3-10.3-5.6-12.2-11.8c16.5-10.5,26.5-25.4,29.4-44.7c2-13.7,0.5-27.6,0.9-41.4C198.3,1,203.7,1,209,1z"/>
	<path class="st79" d="M83.2,98.9c-8.3-6.7-16-14-21.7-23.1c-7.9-12.5-12-26.2-12.3-40.9C48.9,23.6,49,12.3,49,1c5.3,0,10.7,0,16,0
		c0,12.3-0.2,24.6,0,36.9c0,3.6,0.3,7.4,1.4,10.8c5.2,16.1,14,29.6,28.8,38.5C93.4,93.4,91.2,99.1,83.2,98.9z"/>
	<path class="st80" d="M95.2,87.2c-14.9-8.9-23.7-22.4-28.9-38.5c-1.1-3.4-1.3-7.2-1.4-10.8C64.8,25.6,65,13.3,65,1
		c5.3,0,10.7,0,16,0c0,10.5-0.1,21,0.1,31.5c0.4,17.2,7.2,31.1,21.9,40.6C101.2,78.2,98.4,82.8,95.2,87.2z"/>
	<path class="st80" d="M193,1c-0.4,13.8,1.1,27.6-0.9,41.4c-2.9,19.4-12.9,34.3-29.4,44.7c-3.2-4.3-5.6-9-7.7-13.9
		c14.8-9.7,21.6-23.8,22-41.2c0.2-10.3,0-20.6,0-31C182.3,1,187.7,1,193,1z"/>
	<path class="st81" d="M155,73.2c2.1,4.9,4.4,9.7,7.7,13.9c1.8,6.2,3.9,12.2,12.2,11.8c24.5,4.4,48.9,8.7,74.1,13.2
		c-8.3,8.7-16.2,17-24.1,25.2c-9.6,10-18.9,20.2-29,29.7c-4.4,4.1-4.5,8.7-3.5,13c1.3,5.4,1.9,10.7,2.7,16.1
		c1.5,10.1,3,20.2,4.4,30.3c1.2,8.6,2.3,17.2,3.6,26.6c-5.6-2.5-10.7-4.7-15.6-7.1c-18.5-9.1-37-18.2-55.4-27.4
		c-2.6-1.3-4.6-0.9-6.9,0.3c-21.7,10.7-43.5,21.2-65.3,31.8c-1.5,0.7-3,1.3-5.1,2.2c1.6-11.6,3.1-22.6,4.7-33.6
		c2.1-14.8,4.2-29.6,6.4-44.4c0.4-2.9-0.8-4.6-2.6-6.5c-16.6-17.1-33.1-34.3-49.6-51.4c-1.3-1.3-2.5-2.6-4.5-4.8
		c25.2-4.5,49.6-8.9,74-13.3c8,0.2,10.2-5.5,12-11.7c3.2-4.4,6-9,7.8-14.1c6-11.1,12-22.1,18-33.2c2.4-4.5,4.9-9,7.8-14.4
		C138.6,41.3,145.5,58,155,73.2z M183.2,223.9c-2.4-16.8-4.5-32.6-7-48.3c-1.1-7-0.9-12.6,5.1-18c11-10.1,21-21.3,31.4-32.1
		c1.1-1.2,2.6-2.2,2.8-4.1c-0.4-0.2-0.8-0.6-1.3-0.7c-16.8-3.1-33.5-6.5-50.4-8.7c-3.8-0.5-6.6-1.5-8.5-5.4
		c-7.8-15.2-16-30.3-24-45.4c-0.6-1.1-0.7-3-2.4-2.8c-1.4,0.2-1.6,1.9-2.2,3.1c-8,15-16,30-23.9,44.9c-1.1,2-1.9,4.1-4.8,4.6
		c-17.3,2.9-34.6,6-51.9,9c-1.3,0.2-3,0-3.6,1.3c-0.8,1.8,1.1,2.6,2,3.6c11.8,12.2,23.6,24.4,35.5,36.5c2.3,2.3,3.1,4.4,2.6,7.9
		c-2.4,15.5-4.5,31.2-6.5,46.8c-0.3,2.4-1.9,4.9-0.5,7.5c0.5-0.1,0.9-0.1,1.2-0.3c16-7.8,32-15.5,48-23.5c3.2-1.6,5.7-1.5,8.8,0.1
		c11.2,5.7,22.6,11.2,33.9,16.7C172.3,218.8,177.3,221.1,183.2,223.9z"/>
	<path class="st82" d="M183.2,223.9c-5.9-2.8-10.9-5-15.8-7.4c-11.3-5.5-22.7-11-33.9-16.7c-3.1-1.6-5.6-1.7-8.8-0.1
		c-15.9,8-32,15.7-48,23.5c-0.3,0.1-0.6,0.1-1.2,0.3c-1.5-2.6,0.2-5.1,0.5-7.5c2-15.6,4.1-31.2,6.5-46.8c0.5-3.5-0.3-5.5-2.6-7.9
		c-11.9-12.1-23.7-24.3-35.5-36.5c-1-1-2.9-1.8-2-3.6c0.6-1.3,2.3-1,3.6-1.3c17.3-3,34.6-6.1,51.9-9c2.9-0.5,3.7-2.5,4.8-4.6
		c8-15,15.9-30,23.9-44.9c0.6-1.1,0.8-2.9,2.2-3.1c1.6-0.2,1.8,1.7,2.4,2.8c8.1,15.1,16.2,30.2,24,45.4c2,3.8,4.7,4.9,8.5,5.4
		c16.9,2.2,33.7,5.6,50.4,8.7c0.5,0.1,0.9,0.4,1.3,0.7c-0.2,1.9-1.6,2.9-2.8,4.1c-10.4,10.8-20.4,22-31.4,32.1c-6,5.5-6.2,11-5.1,18
		C178.7,191.3,180.8,207.1,183.2,223.9z M95.2,194.9c9.8-5,19.5-8.5,28.3-13.9c3.2-2,5.9-2.3,9.3-0.6c8.6,4.3,17.3,8.5,26,12.6
		c1.3,0.6,2.8,2.3,3.9,1c0.8-0.8,0.6-2.9,0.3-4.3c-2.1-9.6-2.7-19.3-4.1-28.9c-0.5-3,0.5-4.5,2.3-6.4c7-7.1,13.8-14.4,20.7-21.6
		c0.7-0.7,1.6-1.7,1.5-2.4c-0.2-1.4-1.7-1.2-2.9-1.4c-6.4-1.1-12.7-3.1-19.1-3.1c-12.8-0.1-18.3-8-22.8-18.2
		c-2.6-6-6.1-11.6-9.7-18.1c-5.7,10.5-11,20-15.9,29.7c-1.5,2.9-3.6,4.2-6.5,4.7c-9.6,1.7-19.2,3.4-28.8,5.1c-1.1,0.2-2.6-0.1-3,1.2
		c-0.4,1.3,1,1.9,1.8,2.7c6.9,7.2,13.8,14.4,20.6,21.7c1.2,1.2,2.8,2.1,2.4,4.5c-1,5.2-1.9,10.4-2.2,15.7
		C96.9,181.3,94.4,187.5,95.2,194.9z"/>
	<path class="st83" d="M95.2,194.9c-0.8-7.4,1.7-13.6,2.1-20c0.3-5.3,1.3-10.5,2.2-15.7c0.5-2.4-1.2-3.3-2.4-4.5
		c-6.8-7.3-13.7-14.4-20.6-21.7c-0.8-0.8-2.2-1.5-1.8-2.7c0.4-1.3,1.9-1,3-1.2c9.6-1.7,19.2-3.4,28.8-5.1c2.9-0.5,5-1.8,6.5-4.7
		c5-9.7,10.3-19.3,15.9-29.7c3.5,6.5,7.1,12.1,9.7,18.1c4.4,10.2,10,18.2,22.8,18.2c6.4,0,12.7,2,19.1,3.1c1.1,0.2,2.6,0,2.9,1.4
		c0.1,0.7-0.9,1.7-1.5,2.4c-6.9,7.2-13.7,14.5-20.7,21.6c-1.8,1.9-2.8,3.4-2.3,6.4c1.5,9.6,2.1,19.4,4.1,28.9
		c0.3,1.4,0.5,3.5-0.3,4.3c-1.2,1.2-2.7-0.4-3.9-1c-8.7-4.1-17.4-8.3-26-12.6c-3.4-1.7-6.1-1.4-9.3,0.6
		C114.7,186.4,105,189.9,95.2,194.9z"/>
</g>
<g id="Zap" class="st0">
	<path class="st84" d="M15.6,160.8c-2.3,0.1-4.7,0.1-7,0.2c0-0.7,0-1.3,0-2c3.1-5,4.1-10.7,6-16.2c13.5-40.3,27-80.6,40.3-120.9
		c1.3-3.8,2.9-5,7-5C100.4,17.1,139,17,177.6,17c1.7,0,3.3,0.1,5,0.2c0.3,2.6-1.7,3.8-3,5.4c-2.9,3.5-7.3,5.7-9,10.4
		c-0.8,0-1.7,0.1-2.5,0.1c-30.3,0-60.6,0-90.9-0.1c-3.6,0-5.3,1.1-6.4,4.6c-2.6,8.1-5.7,16-8.4,24C56.4,79.6,49,97.3,43.1,115.6
		c-3.1,9.6-6.2,19.2-10.5,28.4c-1.3,0-2.6,0.1-3.6,1.1c-4,4.1-8.1,8.1-12.2,12.1C15.8,158.3,15.5,159.5,15.6,160.8z"/>
	<path class="st85" d="M15.6,160.8c-0.1-1.4,0.2-2.6,1.2-3.6c4.1-4,8.1-8.1,12.2-12.1c1-1,2.3-1.2,3.6-1.1c0.9,1.3,2.4,1,3.6,1
		c12.8,0,25.6-0.1,38.3-0.1c17.7,0,35.5,0,53.8,0c-1,2.3-1.6,3.8-2.4,5.3c-9.3,16.7-17.1,34.2-25.6,51.3c-0.9,1.8-2.2,3.4-1.8,5.6
		c-0.2,0.1-0.3,0.2-0.5,0.4c0.1,0,0.2,0,0.3-0.1c0.1-0.1,0.1-0.2,0.2-0.3c0.4-0.2,0.9-0.4,1.3-0.7c27.3-20.9,54.5-41.9,81.8-62.8
		c5.8-4.5,11.6-9,18.7-14.4c-3.2,0-4.8,0-6.4,0c-22.8,0-45.6,0-68.4,0c-1.1,0-2.5,0.5-3.3-0.5c-0.9-1.3,0.6-2,1.3-2.9
		c20.2-24.2,40.4-48.4,60.6-72.7c5.3-6.4,10.6-12.9,16.3-19.8c-8.2,0-15.5,0-22.8,0c-2.3-0.1-4.6-0.1-7-0.2c1.6-4.6,6.1-6.8,9-10.4
		c1.4-1.6,3.4-2.8,3-5.4c16.3,0,32.6,0,50,0c-27.2,31.6-53.1,63.4-79.8,95.7c32.1,0,63.1,0,94.1,0c0.1,0.4,0.3,0.7,0.4,1.1
		c-62.9,47.2-125.8,94.3-188.7,141.5c-0.3-0.3-0.6-0.5-0.9-0.8c15.5-31,30.9-61.9,46.9-93.8C74.4,160.8,45,160.8,15.6,160.8z"/>
	<path class="st86" d="M170.6,32.9c2.3,0.1,4.6,0.1,7,0.2c-0.3,2.8-2.4,4.6-4.1,6.6c-2.6,3.1-6.6,5-7.9,9.2c-1,0-2,0.1-3,0.1
		c-23.1,0-46.2,0.1-69.4,0c-3.2,0-5,0.7-6.3,4c-9.5,24.1-19.2,48.1-28.9,72.1c-1.5,3.6-0.2,4.1,3.1,4c8.5-0.1,17,0,25.4,0
		c0.4,2.6-1.6,3.8-3,5.4c-2.9,3.5-7.3,5.8-9,10.4c-12.8,0-25.6,0.1-38.3,0.1c-1.3,0-2.7,0.3-3.6-1c4.3-9.2,7.4-18.8,10.5-28.4
		C49,97.3,56.4,79.6,62.4,61.5c2.7-8,5.8-15.9,8.4-24c1.1-3.4,2.8-4.6,6.4-4.6c30.3,0.2,60.6,0.1,90.9,0.1
		C169,33,169.8,32.9,170.6,32.9z"/>
	<path class="st87" d="M74.6,144.9c1.7-4.6,6.1-6.8,9-10.4c1.4-1.6,3.4-2.8,3-5.4c3.7,0,7.3-0.4,11,0c5.2,0.5,8.4-1.5,11.6-5.7
		c11-14.3,22.5-28.2,33.8-42.3c8-10,15.9-20,23.9-29.9c2.1-2.6,0-2.1-1.3-2.3c1.3-4.2,5.3-6.2,7.9-9.2c1.7-2,3.8-3.7,4.1-6.6
		c7.3,0,14.6,0,22.8,0c-5.7,6.9-10.9,13.4-16.3,19.8c-20.2,24.2-40.4,48.4-60.6,72.7c-0.7,0.8-2.2,1.6-1.3,2.9
		c0.7,1.1,2.2,0.5,3.3,0.5c22.8,0,45.6,0,68.4,0c1.6,0,3.2,0,6.4,0c-7,5.4-12.8,9.9-18.7,14.4c-27.3,20.9-54.5,41.9-81.8,62.8
		c-0.4,0.3-0.9,0.5-1.3,0.7l0,0c-0.4-2.2,0.9-3.8,1.8-5.6c8.5-17.1,16.3-34.6,25.6-51.3c0.8-1.4,1.4-3,2.4-5.3
		C110.1,144.9,92.3,144.9,74.6,144.9z M126.6,167c11.3-6.3,21.7-14.1,32.3-21.5c-6.6-0.5-12.9-0.5-19.2-0.5c-1.3,0-2.9-0.2-3.6,1.2
		C132.9,153.1,128.4,159.4,126.6,167c-0.2,0.1-0.4,0.2-0.5,0.4C126.3,167.3,126.5,167.2,126.6,167z"/>
	<path class="st87" d="M98.6,207c-0.1,0.1-0.1,0.2-0.2,0.3c0,0.1-0.2,0-0.3,0.1C98.3,207.3,98.5,207.1,98.6,207
		C98.6,207,98.6,207,98.6,207z"/>
	<path class="st88" d="M165.6,48.9c1.4,0.2,3.4-0.2,1.3,2.3c-8.1,9.9-16,19.9-23.9,29.9c-11.3,14.1-22.8,28-33.8,42.3
		c-3.2,4.2-6.4,6.2-11.6,5.7c-3.6-0.4-7.3,0-11,0c-8.5,0-17-0.2-25.4,0c-3.3,0.1-4.5-0.4-3.1-4c9.7-24,19.4-48,28.9-72.1
		c1.3-3.3,3.1-4,6.3-4c23.1,0.1,46.2,0,69.4,0C163.6,49,164.6,48.9,165.6,48.9z"/>
	<path class="st85" d="M126.5,166.9c1.9-7.5,6.3-13.8,9.6-20.7c0.7-1.4,2.2-1.2,3.6-1.2c6.3,0,12.6,0,19.2,0.5
		C148.3,153,138,160.7,126.5,166.9L126.5,166.9z"/>
	<path class="st85" d="M126.6,167c-0.2,0.1-0.4,0.3-0.5,0.4C126.3,167.3,126.4,167.1,126.6,167C126.5,166.9,126.6,167,126.6,167z"/>
</g>
</svg>
