<?xml version="1.0" encoding="iso-8859-1"?>
<!-- Generator: Adobe Illustrator 16.0.0, SVG Export Plug-In . SVG Version: 6.00 Build 0)  -->
<!DOCTYPE svg PUBLIC "-//W3C//DTD SVG 1.1//EN" "http://www.w3.org/Graphics/SVG/1.1/DTD/svg11.dtd">
<svg xmlns="http://www.w3.org/2000/svg" xmlns:xlink="http://www.w3.org/1999/xlink" version="1.1" id="Capa_1" x="0px" y="0px" width="512px" height="512px" viewBox="0 0 552.049 552.049" style="enable-background:new 0 0 552.049 552.049;" xml:space="preserve">
<g>
	<g>
		<ellipse cx="235.48" cy="166.231" rx="14.106" ry="11.187" fill="#FFFFFF"/>
		<ellipse cx="259.807" cy="181.801" rx="6.322" ry="5.355" fill="#FFFFFF"/>
		<ellipse cx="200.449" cy="66.977" rx="8.268" ry="7.295" fill="#FFFFFF"/>
		<ellipse cx="221.857" cy="79.144" rx="5.355" ry="2.919" fill="#FFFFFF"/>
		<ellipse cx="328.405" cy="81.573" rx="8.758" ry="10.22" fill="#FFFFFF"/>
		<ellipse cx="399.925" cy="198.343" rx="8.273" ry="7.301" fill="#FFFFFF"/>
		<path d="M215.529,262.077c8.599,0,15.569-5.881,15.569-13.134c0-4.235-2.412-7.956-6.096-10.361    c-2.631-1.714-5.887-2.779-9.474-2.779c-2.307,0-4.48,0.447-6.444,1.212c-5.374,2.068-9.119,6.616-9.119,11.928    C199.959,256.195,206.93,262.077,215.529,262.077z" fill="#FFFFFF"/>
		<ellipse cx="234.507" cy="275.7" rx="7.295" ry="6.812" fill="#FFFFFF"/>
		<ellipse cx="325.487" cy="272.291" rx="12.65" ry="13.133" fill="#FFFFFF"/>
		<ellipse cx="356.136" cy="280.075" rx="5.355" ry="4.376" fill="#FFFFFF"/>
		<ellipse cx="306.024" cy="354.519" rx="13.623" ry="11.677" fill="#FFFFFF"/>
		<ellipse cx="336.19" cy="376.41" rx="4.865" ry="6.328" fill="#FFFFFF"/>
		<ellipse cx="244.238" cy="370.088" rx="7.295" ry="4.865" fill="#FFFFFF"/>
		<ellipse cx="229.635" cy="400.254" rx="14.106" ry="12.65" fill="#FFFFFF"/>
		<ellipse cx="121.146" cy="333.595" rx="6.812" ry="8.274" fill="#FFFFFF"/>
		<ellipse cx="93.41" cy="333.595" rx="10.214" ry="14.106" fill="#FFFFFF"/>
		<ellipse cx="218.448" cy="493.663" rx="14.596" ry="11.677" fill="#FFFFFF"/>
		<ellipse cx="247.157" cy="509.722" rx="6.328" ry="5.349" fill="#FFFFFF"/>
		<ellipse cx="335.7" cy="478.095" rx="10.221" ry="10.704" fill="#FFFFFF"/>
		<path d="M276.025,552.049c118.845,0,211.941-90.283,211.941-205.535c0-59.572-24.51-146.243-60.984-215.674    C401.308,81.977,347.556,0,276.025,0S150.742,81.977,125.069,130.839c-36.475,69.425-60.986,156.096-60.986,215.674    C64.083,461.766,157.181,552.049,276.025,552.049z M221.991,541.375c-0.851-0.221-1.726-0.379-2.57-0.605    c5.869,0.855,11.977,2.037,18.366,2.57C232.316,542.881,227.083,542.121,221.991,541.375z M345.677,536.705    c-21.721,5.258-46.023,8.6-73.238,8.6c27.252,0,51.58-3.354,73.324-8.629C345.731,536.682,345.7,536.693,345.677,536.705z     M363.442,529.889c-26.225,8.391-56.475,13.059-91.022,13.059c-11.065,0-22.577-0.6-34.511-1.604    c11.934,1.004,23.445,1.488,34.511,1.488c35.557,0,66.592-5.031,93.336-13.887C365.003,529.287,364.202,529.551,363.442,529.889z     M276.025,539.809c-10.667,0-21.108-0.783-31.279-2.271c69.291-1.896,126.47-21.205,169.658-50.539    C378.761,519.852,330.261,539.809,276.025,539.809z M206.428,41.965c21.585,15.973,43.274,21.414,62.485,21.414    c28.218,0,51.095-11.604,60.466-18.299c6.07-4.333,6.277-8.574,4.57-12.154c13.213,9.284,27.51,22.534,42.369,41.23    c-1.033,13.396-9.572,25.741-28.457,31.249c-9.449,2.797-18.766,4.816-27.932,6.138c-27.615-1.273-69.175-8.256-107.841-24.866    c-10.349-4.449-21.542-10.11-32.644-17.111C188.723,58.391,197.756,49.309,206.428,41.965z M170.724,80.637    c0.594-0.79,1.188-1.616,1.781-2.387c0.637-0.826,1.267-1.609,1.897-2.417c1.01-1.291,2.02-2.588,3.023-3.825    c40.379,25.471,89.101,37.185,124.585,41.163c6.426,0.722,12.418,1.193,17.846,1.438c3.225,0.147,6.303,0.233,9.1,0.233    c2.791,0,5.332-0.074,7.65-0.208c1.996-0.11,3.826-0.269,5.422-0.465c6.279-0.783,11.316-1.114,15.252-1.114    c20.434,0,10.984,8.898-9.412,8.898c-12.607,1.708-25.062,2.54-37.314,2.54c-52.265,0-100.741-15.214-141.58-41.512    C169.562,82.185,170.143,81.414,170.724,80.637z M134.017,140.258c0.569,0.092,1.132,0.19,1.72,0.19    c6.444,0,11.677-5.661,11.677-12.644c0-2.907-0.942-5.557-2.466-7.693c3.231-5.63,6.451-10.967,9.664-16.034    c41.23,29.302,94.529,51.518,161.188,51.518c31.023,0,64.959-4.847,101.893-15.992c9.92,19.205,18.898,39.646,26.666,60.411    c-37.148,11.304-92.854,24.639-155.51,27.454c-63.342-14.816-119.885-40.575-164.628-67.161    C127.376,153.496,130.645,146.812,134.017,140.258z M103.9,210.448c0.679-1.928,1.334-3.85,2.038-5.771    c0.71-1.94,1.457-3.874,2.185-5.808c4.553-12.081,9.48-24.064,14.792-35.747c42.896,25.435,95.943,49.664,154.817,64.725    c7.254,1.854,14.572,3.586,21.99,5.147c7.564,1.591,15.215,3.011,22.938,4.266c24.002,3.893,48.709,6.108,73.898,6.108    c20.043,0,40.369-1.389,60.863-4.394c5.803,19.572,10.387,38.862,13.508,57.099c-31.494,10.992-92.578,29.059-164.824,33.826    c-36.897-5.275-71.108-15.6-102.442-30.912c37.546,12.73,80.044,19.994,129.45,22.59c0.936,0.049,1.818,0.072,2.625,0.072    c3.012,0,5.416-0.324,7.16-0.961c3.562-1.303,3.947-3.77,3.947-4.768c0-5.984-11.504-9.217-22.332-9.217    c-1.621,0-132.736-1.34-221.078-94.945C103.588,211.317,103.747,210.883,103.9,210.448z M99.726,222.676    c0.208-0.631,0.404-1.261,0.618-1.897c0.177-0.532,0.336-1.059,0.514-1.591c0.496-1.475,1.003-2.944,1.512-4.413    c84.309,88.055,206.6,94.983,222.143,94.983c18.539,0,26.482,8.824,11.225,8.824c-0.764,0-1.584-0.023-2.467-0.066    c-60.924-3.207-109.773-13.691-150.533-30.748c-2.828-1.18-5.618-2.387-8.366-3.635c-4.345-1.971-8.58-4.039-12.748-6.162    c-24.413-12.461-45.802-27.565-65.147-45.185C97.511,229.42,98.612,226.054,99.726,222.676z M76.323,346.514    c0-16.535,2.02-35.287,5.655-55.172c0.098-0.525,0.184-1.047,0.282-1.572c0.098-0.539,0.189-1.064,0.288-1.604    c3.219-16.873,7.625-34.529,13.029-52.381c25.967,23.415,54.303,41.641,86.457,55.104c30.674,17.854,66.904,32.033,109.665,39.762    c2.252,0.41,4.498,0.826,6.787,1.201c2.484,0.402,5.031,0.74,7.559,1.102c18.744,2.654,38.611,4.174,59.822,4.174    c33.115,0,69.314-3.514,108.9-11.336c0.348,4.15,0.586,8.195,0.734,12.148c-41.365,50.361-81.941,83.637-144.17,102.584    c-84.823-2.504-185.466-20.049-254.396-79.113C76.574,356.49,76.323,351.539,76.323,346.514z M129.904,429.447    c0,0-5.539,32.393,74.542,32.393c8.789,0,18.611-0.393,29.578-1.256c37.864-2.986,69.646-8.646,97.228-17.006    c1.525-0.459,3.055-0.918,4.555-1.396c1.475-0.471,2.912-0.967,4.363-1.449c58.066-19.5,97.039-51.941,135.459-98.146    c0.025,1.303,0.1,2.656,0.1,3.934c0,32.027-7.705,61.965-21.385,88.307c-0.281,0.539-0.557,1.076-0.844,1.615    c-0.287,0.545-0.562,1.102-0.857,1.646c-7,12.863-15.471,24.799-25.184,35.668c-48.996,38.732-117.02,60.898-194.028,60.898    c-1.481,0-2.999-0.072-4.492-0.084c-40.839-9.223-76.451-30.227-102.993-59.303C120.632,450.977,129.904,429.447,129.904,429.447z    " fill="#FFFFFF"/>
	</g>
</g>
<g>
</g>
<g>
</g>
<g>
</g>
<g>
</g>
<g>
</g>
<g>
</g>
<g>
</g>
<g>
</g>
<g>
</g>
<g>
</g>
<g>
</g>
<g>
</g>
<g>
</g>
<g>
</g>
<g>
</g>
</svg>
